<svg width="40" height="40" viewBox="0 0 40 40" fill="none" xmlns="http://www.w3.org/2000/svg">
<path fill-rule="evenodd" clip-rule="evenodd" d="M22.0966 7.13551C22.6667 7.1415 23.1605 7.53254 23.297 8.08611L27.9989 27.15L29.6489 22.2569C29.8204 21.7485 30.297 21.4063 30.8334 21.4063H35.8334C36.5238 21.4063 37.0834 21.9659 37.0834 22.6563C37.0834 23.3466 36.5238 23.9063 35.8334 23.9063H31.7311L28.997 32.014C28.8195 32.5406 28.3157 32.8867 27.7605 32.8635C27.2053 32.8403 26.732 32.4534 26.5989 31.9139L22.0308 13.3921L17.0405 31.9394C16.8942 32.4831 16.4025 32.8619 15.8395 32.8646C15.2765 32.8673 14.7811 32.4933 14.6296 31.9511L10.8996 18.6062L8.9623 23.1468C8.76578 23.6074 8.31335 23.9063 7.81258 23.9063H4.16675C3.47639 23.9063 2.91675 23.3466 2.91675 22.6563C2.91675 21.9659 3.47639 21.4063 4.16675 21.4063H6.98689L9.99619 14.3532C10.2044 13.8652 10.6981 13.5618 11.2276 13.5964C11.757 13.6311 12.2069 13.9963 12.3498 14.5073L15.8105 26.8889L20.8763 8.06067C21.0245 7.51008 21.5264 7.12951 22.0966 7.13551Z" fill="white"/>
</svg>
