<svg width="70" height="45" viewBox="0 0 70 45" fill="none" xmlns="http://www.w3.org/2000/svg">
<g id="axie">
<path id="Vector" d="M42.052 7.84588C42.2594 7.67037 42.5227 7.38316 42.8179 7.5507C43.8869 8.2368 44.8842 9.01067 45.8176 9.86431C46.4399 10.4387 47.0143 11.061 47.6206 11.6514C47.6206 11.795 47.6366 11.9545 47.5329 12.0662C46.4159 13.6618 45.0756 15.0899 43.6476 16.4142C43.496 16.5339 43.3364 16.6376 43.1609 16.7174C42.9535 16.6536 42.762 16.5578 42.5785 16.4462C41.7169 15.8558 40.8872 15.2175 40.0894 14.5314C39.3873 13.9171 38.6534 13.3268 38.0869 12.5768C37.8077 12.2896 38.1827 11.9785 38.3342 11.7312C39.4591 10.335 40.7037 9.0346 42.052 7.84588ZM43.5917 11.1089C43.0492 11.6035 42.5386 12.1221 41.9642 12.5848C41.8047 12.7045 41.6611 12.872 41.4536 12.9039C41.2542 12.4173 41.2701 11.8827 41.326 11.3722C41.4855 11.3961 41.6451 11.444 41.7967 11.5158C41.6371 11.7471 41.1824 11.9944 41.4616 12.3136C41.6531 12.1301 41.8366 11.9466 42.0201 11.7551C42.1318 11.8189 42.2435 11.8827 42.3472 11.9466C42.4349 11.8429 42.5785 11.7471 42.5147 11.5955C42.1477 11.3004 41.7408 11.061 41.31 10.8695C41.1824 10.7977 41.0308 10.8297 40.8952 10.8456C40.8393 11.1887 40.7675 11.5397 40.8234 11.8907C40.9031 12.4492 40.8553 13.0475 41.1345 13.5581C41.6212 13.4464 41.9323 13.0156 42.2993 12.7125C42.8578 12.2338 43.3285 11.6594 43.9348 11.2445L44.1741 11.2924C44.2778 11.7631 44.3975 12.2737 44.1901 12.7284C43.8869 12.6646 43.6556 12.4572 43.4082 12.2816C43.2407 12.146 42.8897 12.2497 43.0492 12.513C43.496 12.8321 43.9667 13.1114 44.4693 13.3268L44.7166 13.1672C44.7645 12.3056 44.7485 11.42 44.4853 10.5983C44.0943 10.5424 43.847 10.8775 43.5917 11.1089ZM11.1213 9.11438C11.4883 8.93887 11.8713 8.73144 12.2941 8.79526C12.8286 9.65689 13.5466 10.3829 14.0891 11.2445C13.411 11.7152 12.8765 12.4173 12.7887 13.255C12.8525 13.5741 12.9403 13.9251 13.2036 14.1405C13.8019 14.6272 14.5439 14.8745 15.2779 15.0899C17.4718 15.6962 19.7296 16.0792 21.9315 16.6616L22.0591 16.861C21.8358 21.9031 21.7241 26.9532 21.6443 32.0112C21.2613 32.1867 20.8305 32.083 20.4237 32.1229C19.1711 32.1069 17.9186 32.3064 16.666 32.2186C16.4187 31.2772 16.2113 30.3279 15.956 29.3944C15.1343 29.0913 14.3125 28.7801 13.4748 28.5168H13.2514C12.5414 29.7135 11.9111 30.9581 11.1612 32.1389C9.96452 32.1548 8.7758 32.1229 7.5791 32.1628C7.02862 32.2107 6.36645 32.3543 5.91968 31.9314C5.80799 31.8038 5.52078 31.7001 5.61652 31.4926C6.49409 29.4662 7.42752 27.4558 8.33701 25.4453C9.26245 23.3232 10.1799 21.1931 11.0336 19.039C11.1612 18.7518 11.2171 18.4087 11.0974 18.1056C10.9299 17.6109 10.507 17.2599 10.0922 16.9567C9.13481 16.2467 8.1216 15.6085 7.1802 14.8745C7.20413 14.6192 7.35572 14.4118 7.45145 14.1804C7.75462 13.4943 8.04182 12.7922 8.42477 12.138C8.85558 12.0423 9.09492 12.4572 9.36617 12.7045C9.31032 11.5716 9.69327 10.4547 10.4193 9.58508C10.5868 9.34574 10.866 9.24203 11.1213 9.11438ZM15.1343 20.5787C14.9109 20.9617 14.7832 21.3925 14.6316 21.7994C14.4322 22.4057 14.1689 22.9961 14.0014 23.6184C13.9376 23.7779 13.9854 23.9375 14.0492 24.0811C14.8072 24.3683 15.581 24.6316 16.3788 24.7433C16.5543 24.6156 16.7458 24.4959 16.9293 24.3843C17.1128 23.2035 16.9692 22.0148 16.9213 20.834L16.7697 20.6107C16.4426 20.5548 16.1235 20.4511 15.8044 20.3713C15.5571 20.3314 15.2699 20.3394 15.1343 20.5787ZM55.6784 12.4891C56.3565 12.2338 57.0107 11.9306 57.7048 11.7152C57.9122 11.6913 58.1835 11.5955 58.359 11.7631C58.4228 12.0104 58.4707 12.2577 58.4866 12.505C58.5664 13.6219 58.6861 14.7309 58.8217 15.8318C58.8696 16.0552 58.6143 16.151 58.4707 16.2467C57.4575 16.8131 56.6597 17.6987 56.0613 18.68C55.8858 18.9353 55.7821 19.2464 55.4949 19.398C54.8088 19.1587 54.1785 18.6959 53.4445 18.6002C53.1653 18.7677 53.1813 19.1666 53.1494 19.4539C53.0855 20.0761 53.3887 20.6665 53.8275 21.0893C53.9711 21.209 54.1466 21.3925 54.354 21.3207C54.8168 21.0096 55.1518 20.5468 55.5268 20.14C55.6624 19.9565 55.9337 19.9884 56.1092 20.0921C56.4842 20.2995 56.8751 20.483 57.266 20.6506C57.9202 20.9058 58.6223 20.9776 59.3084 21.0893C59.5477 21.1213 59.803 21.1213 60.0264 21.2329C59.9705 21.927 59.803 22.6052 59.787 23.3072C59.7711 23.4987 59.7392 23.6822 59.6754 23.8577C59.0371 24.1848 58.359 24.4002 57.6968 24.6715C57.5213 24.7512 57.3378 24.823 57.1623 24.8869C56.7474 25.0624 56.3246 25.206 55.9177 25.3975C55.9656 25.557 56.0294 25.7246 56.0853 25.8841C56.1331 26.0277 56.173 26.1713 56.2049 26.3149C57.0187 26.4426 57.8564 26.4107 58.6781 26.4505C60.0982 26.4825 61.5183 26.5702 62.9463 26.5383C63.1857 26.5383 63.433 26.5064 63.6723 26.5463C63.9755 26.8175 64.3505 27.0649 64.4941 27.4638C64.4382 27.8387 64.2547 28.1818 64.143 28.5488C64.0632 28.7243 63.9914 28.9078 63.9276 29.0913C63.8478 29.2668 63.776 29.4423 63.7122 29.6258C63.5048 30.0965 63.3133 30.5752 63.1218 31.0538C63.0899 31.1655 63.0102 31.3411 63.1458 31.4208C63.6085 31.716 64.1191 31.9474 64.5659 32.2665C64.7813 32.442 64.6696 32.7292 64.5579 32.9287C64.3824 33.184 64.0632 33.2558 63.784 33.3515C62.4836 33.7823 61.1912 34.261 59.8908 34.6998C59.5716 34.8035 59.2286 34.9311 58.9015 34.7796C58.8776 33.6068 58.9174 32.434 59.0212 31.2613C57.2979 31.2693 55.5747 31.4288 53.8594 31.5724C53.0297 31.6043 52.208 31.74 51.3782 31.6682C51.2107 31.5724 51.1628 31.373 51.107 31.2054C50.748 29.9688 50.5007 28.7083 50.1895 27.4638C49.8864 26.1793 49.5353 24.9108 49.2322 23.6263C49.0806 22.9083 48.913 22.1903 48.7056 21.4803C48.3785 19.8208 47.9796 18.1694 47.5967 16.5259C47.5727 16.3584 47.5648 16.1829 47.5887 16.0153C47.9796 15.768 48.3865 15.5526 48.8093 15.3611C50.7241 14.5235 52.6707 13.7496 54.5774 12.9039C54.9683 12.7683 55.3274 12.6327 55.6784 12.4891ZM31.1221 20.8899C32.7656 19.5895 34.3612 18.2173 36.0047 16.9248C37.2014 18.0657 38.4778 19.1427 39.499 20.4511C38.9166 21.0654 38.2066 21.5361 37.5683 22.0866C36.7865 22.7328 36.0366 23.4109 35.2228 24.0252C35.0314 24.121 35.0473 24.3603 35.1191 24.5358C35.51 25.5171 36.2919 26.291 37.1934 26.8175C37.8476 27.2164 38.6932 27.2164 39.3794 26.8893C39.6745 26.7697 39.9378 26.5144 40.2809 26.5622C40.5202 27.5914 40.8234 28.6046 41.0468 29.6417C41.1106 29.8173 40.8952 29.913 40.7915 30.0087C39.7384 30.7347 38.7331 31.5245 37.6561 32.2186C37.4088 32.4021 37.0657 32.4021 36.8184 32.2107C35.5898 31.3809 34.3772 30.5353 33.2203 29.6178C32.5821 29.1232 31.9838 28.5886 31.3056 28.1499C30.4201 28.9477 29.5824 29.7933 28.6968 30.5831C27.9549 31.2453 27.2049 31.8915 26.4949 32.5856C26.0641 32.3144 25.737 31.9234 25.362 31.5884C24.5164 30.8305 23.7186 30.0247 22.8649 29.2748C22.6974 29.0913 22.2985 28.8439 22.5857 28.5886C23.7505 27.2643 24.9711 25.9878 26.1439 24.6715C25.4498 23.5306 24.7078 22.4217 24.0457 21.2569C23.7505 20.7144 23.3596 20.2277 23.1282 19.6533C24.4845 18.7997 25.8407 17.946 27.2448 17.1722C27.7315 17.5072 28.0586 18.0098 28.4814 18.4167C29.2473 19.1826 29.9494 20.0043 30.7392 20.7463C30.8349 20.858 30.9865 20.9936 31.1221 20.8899ZM39.9298 17.8343C42.1158 17.4274 44.3337 17.1562 46.5356 16.8291C46.7909 17.6827 46.6952 18.5922 46.7989 19.4698C46.8866 20.1001 46.8228 20.7463 46.9026 21.3845C47.0063 22.1105 46.9505 22.8525 47.0143 23.5785C47.11 24.2008 47.0542 24.823 47.134 25.4453C47.2217 26.1234 47.134 26.8096 47.2536 27.4797C47.2696 28.82 47.493 30.1444 47.4052 31.4847C47.2457 31.4926 47.0861 31.4847 46.9265 31.4767C45.3628 31.2134 43.8071 30.9581 42.2594 30.631C42.036 30.5991 41.9164 30.3917 41.8924 30.1763C41.677 28.828 41.3818 27.4957 41.1265 26.1554C41.0787 25.8761 41.0468 25.565 41.2223 25.3177C42.052 23.8737 42.4429 22.0946 41.9243 20.483C41.3659 20.491 40.8234 20.4032 40.2649 20.3633C40.0734 19.5336 39.9617 18.688 39.9298 17.8343ZM37.8236 22.2302C37.8795 22.0387 38.0789 21.927 38.2704 21.9749C38.7012 22.5413 38.765 23.2673 38.8129 23.9534C38.773 24.4561 38.7571 24.9986 38.4778 25.4373C38.3422 25.4214 38.1827 25.4294 38.1268 25.2698C37.6162 24.3603 37.4407 23.2115 37.8236 22.2302ZM22.474 34.245C22.8649 34.2291 23.2558 34.2291 23.6468 34.253C23.6388 35.2902 23.6308 36.3273 23.6388 37.3724C23.2479 37.4043 22.849 37.3963 22.458 37.3963C22.466 36.3433 22.474 35.2981 22.474 34.245ZM24.7397 34.2371C25.0429 34.253 25.37 34.1812 25.6572 34.277C26.0402 34.8115 26.3353 35.4098 26.7422 35.9364C26.7741 35.3699 26.7582 34.8035 26.7662 34.2371C27.0853 34.2291 27.4044 34.2291 27.7155 34.253C27.7076 35.2981 27.7155 36.3433 27.7235 37.3884C27.4124 37.3963 27.1012 37.3963 26.7901 37.3884C26.463 36.8937 26.104 36.423 25.7849 35.9204C25.753 36.4151 25.729 36.9017 25.737 37.3963C25.4019 37.3963 25.0668 37.3963 24.7238 37.3963C24.7078 37.3245 24.6759 37.1809 24.66 37.1012C24.7796 36.1598 24.6999 35.1944 24.7397 34.2371ZM28.7846 34.2371C29.5664 34.2371 30.3562 34.2371 31.1381 34.2371C31.1381 34.5243 31.1381 34.8115 31.1381 35.0907C30.6833 35.0907 30.2286 35.0827 29.7818 35.1067L29.7898 35.5375L30.5238 35.5534C30.5238 35.7609 30.5238 35.9603 30.5238 36.1677C30.2924 36.1598 30.0611 36.1598 29.8297 36.1598C29.8377 36.5666 29.8377 36.9735 29.8536 37.3884C29.4787 37.4362 29.0957 37.4043 28.7208 37.3804C28.7607 36.3273 28.8005 35.2822 28.7846 34.2371ZM32.1593 34.3089C32.4944 34.1413 32.9411 34.2849 33.3241 34.245C33.3161 35.2902 33.3081 36.3433 33.3081 37.3963C32.9172 37.4043 32.5263 37.4043 32.1353 37.3884C32.1513 36.3592 32.1194 35.33 32.1593 34.3089ZM34.433 34.2371C34.7521 34.2211 35.0633 34.2291 35.3824 34.277C35.6457 34.8115 36.0206 35.2742 36.3158 35.7928L36.4833 35.7848C36.4674 35.2662 36.4833 34.7556 36.4833 34.245C36.7865 34.245 37.0817 34.245 37.3849 34.245C37.3769 35.2902 37.4008 36.3353 37.4327 37.3724C37.1056 37.4043 36.7705 37.4283 36.4435 37.3565C36.1961 36.9177 35.885 36.5188 35.5818 36.1119L35.4303 36.0321C35.4303 36.4869 35.4303 36.9416 35.4223 37.3963C35.0633 37.3963 34.7122 37.3963 34.3612 37.3884C34.3931 36.3353 34.3772 35.2822 34.433 34.2371ZM38.4938 34.2371C38.8688 34.2371 39.2437 34.2371 39.6107 34.2371C39.6027 35.2902 39.6027 36.3353 39.6027 37.3884C39.2198 37.3884 38.8289 37.3963 38.4459 37.3724C38.4619 36.3273 38.4459 35.2822 38.4938 34.2371ZM40.7436 34.245C41.7009 34.1333 42.6583 34.253 43.6157 34.2291L43.7593 34.245C43.6954 34.604 43.6635 34.9631 43.6795 35.3221C43.3524 35.3221 43.0253 35.3221 42.7062 35.33C42.6982 36.0162 42.6982 36.7023 42.6902 37.3884H42.1956L42.1158 37.4442C41.9164 37.4362 41.7089 37.4602 41.5254 37.3565C41.5893 36.6783 41.6291 36.0002 41.6451 35.3221C41.3419 35.3221 41.0308 35.33 40.7276 35.338C40.6718 35.1067 40.6718 34.8673 40.7276 34.636C40.7117 34.5402 40.6798 34.3488 40.6638 34.253L40.7436 34.245ZM44.23 34.2371C44.6129 34.261 45.0198 34.1413 45.3948 34.253C45.674 34.5243 45.8814 34.8673 46.1447 35.1545C46.2883 34.8514 46.4319 34.5482 46.5755 34.253C46.9744 34.2371 47.3813 34.2371 47.7882 34.245C47.3813 35.3141 46.7909 36.3113 46.3681 37.3804C45.9851 37.5639 45.5304 37.2527 45.1714 37.5001C45.0278 36.9735 45.7059 36.5826 45.6022 36.056C45.1554 35.4338 44.6608 34.8593 44.23 34.2371Z" fill="#B6C1E1"/>
</g>
</svg>
