<svg width="20" height="20" viewBox="0 0 20 20" fill="none" xmlns="http://www.w3.org/2000/svg">
<path fill-rule="evenodd" clip-rule="evenodd" d="M10.4166 9.30994H9.58329C9.35317 9.30994 9.16663 9.49648 9.16663 9.7266V10.5599C9.16663 10.7901 9.35317 10.9766 9.58329 10.9766H10.4166C10.6467 10.9766 10.8333 10.7901 10.8333 10.5599V9.7266C10.8333 9.49648 10.6467 9.30994 10.4166 9.30994ZM9.58329 8.05994C8.66282 8.05994 7.91663 8.80613 7.91663 9.7266V10.5599C7.91663 11.4804 8.66282 12.2266 9.58329 12.2266H10.4166C11.3371 12.2266 12.0833 11.4804 12.0833 10.5599V9.7266C12.0833 8.80613 11.3371 8.05994 10.4166 8.05994H9.58329Z" fill="white"/>
<path fill-rule="evenodd" clip-rule="evenodd" d="M14.0885 6.25004C14.0885 4.98439 15.1145 3.95837 16.3802 3.95837H17.5V5.20837H16.3802C15.8049 5.20837 15.3385 5.67474 15.3385 6.25004V13.75C15.3385 14.3253 15.8049 14.7917 16.3802 14.7917H17.5V16.0417H16.3802C15.1145 16.0417 14.0885 15.0157 14.0885 13.75V10.625H12.9166V9.37504H14.0885V6.25004Z" fill="white"/>
<path fill-rule="evenodd" clip-rule="evenodd" d="M5.9115 6.25004C5.9115 4.98439 4.88548 3.95837 3.61983 3.95837H2.50004V5.20837H3.61983C4.19513 5.20837 4.6615 5.67474 4.6615 6.25004V13.75C4.6615 14.3253 4.19513 14.7917 3.61983 14.7917H2.50004V16.0417H3.61983C4.88548 16.0417 5.9115 15.0157 5.9115 13.75V10.625H7.08337V9.37504H5.9115V6.25004Z" fill="white"/>
</svg>
