<svg width="135" height="45" viewBox="0 0 135 45" fill="none" xmlns="http://www.w3.org/2000/svg">
<g id="binance">
<path id="Vector" d="M13.242 22.5L10.548 25.195L7.828 22.5L10.547 19.781L13.242 22.5ZM19.828 15.914L24.468 20.554L27.188 17.836L19.828 10.5L12.468 17.86L15.188 20.578L19.828 15.914ZM29.109 19.781L26.414 22.5L29.133 25.219L31.851 22.5L29.109 19.781ZM19.828 29.086L15.188 24.422L12.468 27.141L19.828 34.5L27.188 27.14L24.468 24.422L19.828 29.086ZM19.828 25.196L22.547 22.476L19.828 19.782L17.109 22.5L19.828 25.195V25.196ZM48.422 25.476V25.43C48.422 23.672 47.484 22.781 45.961 22.195C46.898 21.68 47.695 20.835 47.695 19.359V19.313C47.695 17.25 46.031 15.914 43.359 15.914H37.242V29.063H43.5C46.476 29.086 48.422 27.867 48.422 25.477V25.476ZM44.812 19.852C44.812 20.836 44.015 21.234 42.726 21.234H40.055V18.445H42.914C44.133 18.445 44.812 18.937 44.812 19.805V19.852ZM45.539 25.102C45.539 26.086 44.766 26.532 43.499 26.532H40.055V23.648H43.406C44.883 23.648 45.539 24.188 45.539 25.078V25.102ZM54.492 29.086V15.914H51.586V29.063H54.492V29.086ZM70.055 29.086V15.914H67.195V24.024L61.031 15.914H58.359V29.063H61.219V20.719L67.594 29.086H70.054H70.055ZM86.085 29.086L80.438 15.844H77.767L72.118 29.086H75.095L76.29 26.133H81.845L83.04 29.086H86.087H86.085ZM80.812 23.578H77.32L79.078 19.313L80.812 23.578ZM99.891 29.086V15.914H97.031V24.024L90.867 15.914H88.195V29.063H91.055V20.719L97.43 29.086H99.89H99.891ZM114.82 26.953L112.969 25.102C111.937 26.039 111.023 26.648 109.5 26.648C107.25 26.648 105.68 24.773 105.68 22.523V22.453C105.68 20.203 107.273 18.352 109.5 18.352C110.812 18.352 111.844 18.914 112.875 19.828L114.726 17.695C113.508 16.5 112.031 15.656 109.547 15.656C105.516 15.656 102.68 18.726 102.68 22.453V22.5C102.68 26.273 105.562 29.273 109.43 29.273C111.961 29.297 113.461 28.406 114.82 26.953ZM127.172 29.086V26.508H120.023V23.742H126.234V21.164H120.023V18.492H127.078V15.914H117.164V29.063H127.172V29.086Z" fill="#B6C1E1"/>
</g>
</svg>
