<svg width="33" height="32" viewBox="0 0 33 32" fill="none" xmlns="http://www.w3.org/2000/svg">
<path d="M9.21573 17.6545L12.815 19.6177L8.43133 21.9385L4.04776 19.6178L7.6471 17.6545V10.277C7.6471 9.84379 7.99825 9.49264 8.43141 9.49264H11.5687V7.68112L15.8822 9.96479V14.664L11.9774 12.5341C11.7254 12.3967 11.5687 12.1326 11.5687 11.8456V11.0613H9.21573V17.6545ZM25.6863 17.6545L29.2856 19.6177L24.9019 21.9385L20.5183 19.6178L24.1177 17.6545V11.0613H21.7647V11.8456C21.7647 12.1326 21.608 12.3967 21.356 12.5341L17.4509 14.6642V9.96486L21.7647 7.68105V9.49264H24.902C25.3352 9.49264 25.6863 9.84379 25.6863 10.277V17.6545ZM12.2831 6.28444L16.2911 4.09821C16.5252 3.97052 16.8082 3.97052 17.0423 4.09821L21.0503 6.28439L16.6666 8.60517L12.2831 6.28444ZM19.804 24.0024H13.5295V25.1789C13.5295 25.4659 13.3727 25.73 13.1207 25.8675L9.21557 27.9975V23.2982L13.5295 21.0144V22.4338H19.804V21.0145L24.1175 23.2981V27.9974L20.2127 25.8675C19.9607 25.73 19.804 25.4659 19.804 25.1789V24.0024ZM30 21.0144V25.1789C30 25.4659 29.8433 25.73 29.5913 25.8675L25.6862 27.9975V23.2982L30 21.0144ZM7.64694 27.9974L3.74212 25.8675C3.49015 25.73 3.33337 25.4659 3.33337 25.1789V21.0145L7.64694 23.2981V27.9974Z" fill="url(#paint0_linear_1_4639)"/>
<defs>
<linearGradient id="paint0_linear_1_4639" x1="3.33337" y1="16" x2="30" y2="16" gradientUnits="userSpaceOnUse">
<stop stop-color="#FFBC6A"/>
<stop offset="1" stop-color="#CA7915"/>
</linearGradient>
</defs>
</svg>
