<svg width="33" height="32" viewBox="0 0 33 32" fill="none" xmlns="http://www.w3.org/2000/svg">
<path d="M25.339 7.03922H23.6446V6.15409C23.6446 5.54715 23.1641 5.06665 22.5571 5.06665H10.0389C9.43197 5.06665 8.95147 5.54715 8.95147 6.15409V7.03922H7.25709C5.61328 7.03922 4.29823 8.37955 4.29823 9.99807V12.1224C4.27294 14.0191 5.41097 15.6882 7.18122 16.3963L9.50784 17.3067C9.81131 18.0654 10.2159 18.8493 10.8988 19.5322C11.9862 20.6702 13.4277 21.3024 15.1979 21.4794V24.7165H12.8966C12.2897 24.7165 11.8092 25.197 11.8092 25.8039C11.8092 26.4109 12.2897 26.8914 12.8966 26.8914H19.6742C20.2811 26.8914 20.7616 26.4109 20.7616 25.8039C20.7616 25.197 20.2811 24.7165 19.6742 24.7165H17.3728V21.5047C19.1431 21.3024 20.5846 20.6702 21.672 19.5574C22.3295 18.8746 22.7595 18.0907 23.0629 17.332L25.3895 16.4216C27.1598 15.7135 28.2978 14.0444 28.2978 12.1477V10.0234C28.2978 8.35426 26.9575 7.03922 25.339 7.03922ZM7.99048 14.3478C7.08006 13.9938 6.47312 13.1087 6.47312 12.1224V9.99807C6.47312 9.56815 6.82717 9.2141 7.2318 9.2141H8.92618V14.1202C8.92618 14.1455 8.92618 14.3731 8.92618 14.7019L7.99048 14.3478ZM17.1705 17.3067V18.0907C17.1705 18.3183 16.9935 18.5206 16.7406 18.5206H15.8049C15.5773 18.5206 15.375 18.3436 15.375 18.0907V17.3573C14.3887 17.2055 13.6553 16.4216 13.5541 15.41C13.5541 15.3088 13.5794 15.1824 13.6553 15.1065C13.7312 15.0054 13.8576 14.9801 13.9841 14.9801H14.945C15.1474 14.9801 15.2991 15.1065 15.3497 15.3088C15.4003 15.5111 15.552 15.6376 15.7543 15.6376H16.5889C16.9682 15.6376 17.297 15.3594 17.3475 15.0054C17.3728 14.803 17.297 14.6007 17.1705 14.449C17.0441 14.2973 16.8417 14.2214 16.6394 14.2214H16.0325C14.7174 14.2214 13.5794 13.2351 13.453 11.9959C13.3265 10.7315 14.1611 9.59344 15.4003 9.34055V8.58187C15.4003 8.35426 15.5773 8.15195 15.8302 8.15195H16.7659C16.9935 8.15195 17.1958 8.32898 17.1958 8.58187V9.31526C18.1821 9.467 18.9155 10.251 19.0166 11.2625C19.0166 11.389 18.9913 11.4901 18.9155 11.566C18.8396 11.6419 18.7132 11.6925 18.612 11.6925H17.651C17.4487 11.6925 17.297 11.566 17.2464 11.3637C17.1958 11.1614 17.0441 11.0349 16.8417 11.0349H16.0072C15.6279 11.0349 15.2991 11.3131 15.2485 11.6672C15.2232 11.8695 15.2991 12.0718 15.4255 12.2235C15.552 12.3753 15.7543 12.4511 15.9566 12.4511H16.6647C17.3728 12.4511 18.0303 12.7546 18.5108 13.2604C18.9913 13.7915 19.2189 14.4743 19.1431 15.1824C19.0166 16.194 18.2327 17.0538 17.1705 17.3067ZM26.0976 12.1224C26.0976 13.1087 25.4907 13.9938 24.5803 14.3478L23.6446 14.7272C23.6699 14.4237 23.6446 14.2214 23.6446 14.1961V9.23939H25.339C25.7689 9.23939 26.0976 9.59344 26.0976 10.0234V12.1224Z" fill="url(#paint0_linear_1_4611)"/>
<defs>
<linearGradient id="paint0_linear_1_4611" x1="4.63777" y1="15.979" x2="28.2978" y2="15.979" gradientUnits="userSpaceOnUse">
<stop stop-color="#608BFF"/>
<stop offset="1" stop-color="#2EDF74"/>
</linearGradient>
</defs>
</svg>
