<svg width="28" height="28" viewBox="0 0 28 28" fill="none" xmlns="http://www.w3.org/2000/svg">
<path d="M21.2391 7.18987C19.8847 6.56319 18.4324 6.10148 16.9139 5.83703C16.8862 5.83193 16.8586 5.84469 16.8443 5.87019C16.6576 6.20521 16.4507 6.64226 16.3058 6.98578C14.6725 6.7392 13.297 6.73623 11.6972 6.98281C11.5523 6.63165 11.3379 6.20223 11.1503 5.86722C11.1361 5.84256 11.1084 5.82981 11.0808 5.83406C9.56309 6.09766 8.11073 6.55937 6.75553 7.18689C6.7438 7.192 6.73374 7.20051 6.72707 7.21155C3.97226 11.3619 3.2176 15.4102 3.58781 19.4083C3.58949 19.4279 3.60038 19.4466 3.61545 19.4585C5.433 20.8045 7.1936 21.6217 8.9215 22.1633C8.94916 22.1718 8.97846 22.1616 8.99606 22.1386C9.40479 21.5758 9.76915 20.9823 10.0815 20.3581C10.1 20.3216 10.0824 20.2782 10.0447 20.2637C9.46678 20.0427 8.91648 19.7731 8.38713 19.467C8.34526 19.4424 8.3419 19.382 8.38042 19.353C8.49182 19.2689 8.60324 19.1813 8.70961 19.0929C8.72885 19.0767 8.75567 19.0733 8.7783 19.0835C12.2559 20.6846 15.7714 20.6876 19.208 19.0865C19.2306 19.0754 19.2574 19.0788 19.2775 19.095C19.3839 19.1834 19.4953 19.2718 19.6075 19.356C19.646 19.3849 19.6435 19.4453 19.6017 19.47C19.0723 19.782 18.522 20.0456 17.9432 20.2659C17.9056 20.2803 17.8888 20.3245 17.9072 20.3611C18.2263 20.9844 18.5907 21.5779 18.9919 22.1408C19.0086 22.1646 19.0388 22.1748 19.0664 22.1663C20.8027 21.6247 22.5633 20.8075 24.3809 19.4615C24.3968 19.4496 24.4068 19.4317 24.4085 19.4122C24.8516 14.7899 23.6664 10.7748 21.2667 7.21537C21.2609 7.20348 21.2508 7.19497 21.2391 7.18987ZM10.6009 16.9739C9.55387 16.9739 8.69117 16.0046 8.69117 14.8141C8.69117 13.6237 9.53714 12.6544 10.6009 12.6544C11.6729 12.6544 12.5273 13.6322 12.5105 14.8141C12.5105 16.0046 11.6646 16.9739 10.6009 16.9739ZM17.4122 16.9769C16.3652 16.9769 15.5025 16.0075 15.5025 14.8171C15.5025 13.6267 16.3485 12.6573 17.4122 12.6573C18.4843 12.6573 19.3386 13.6352 19.3219 14.8171C19.3219 16.0075 18.4843 16.9769 17.4122 16.9769Z" fill="white"/>
</svg>
