<svg width="32" height="32" viewBox="0 0 32 32" fill="none" xmlns="http://www.w3.org/2000/svg">
<path d="M24.2733 8.21711C22.7254 7.5009 21.0656 6.97323 19.3301 6.67101C19.2985 6.66518 19.267 6.67975 19.2507 6.70891C19.0372 7.09178 18.8008 7.59127 18.6352 7.98387C16.7686 7.70206 15.1966 7.69866 13.3683 7.98047C13.2027 7.57914 12.9576 7.08838 12.7432 6.70551C12.7269 6.67733 12.6953 6.66275 12.6637 6.66761C10.9292 6.96886 9.26941 7.49653 7.72061 8.21371C7.7072 8.21954 7.69571 8.22926 7.68808 8.24189C4.53973 12.9851 3.67726 17.6118 4.10036 22.1811C4.10227 22.2034 4.11472 22.2248 4.13195 22.2384C6.20914 23.7767 8.22125 24.7106 10.196 25.3296C10.2276 25.3393 10.2611 25.3277 10.2812 25.3014C10.7483 24.6581 11.1647 23.9798 11.5218 23.2665C11.5428 23.2248 11.5227 23.1752 11.4797 23.1587C10.8192 22.906 10.1903 22.598 9.58529 22.2481C9.53744 22.2199 9.53361 22.1509 9.57763 22.1179C9.70493 22.0217 9.83228 21.9216 9.95384 21.8205C9.97583 21.8021 10.0065 21.7982 10.0323 21.8098C14.0067 23.6397 18.0245 23.6431 21.952 21.8132C21.9778 21.8006 22.0085 21.8045 22.0314 21.823C22.153 21.924 22.2803 22.0251 22.4086 22.1213C22.4526 22.1543 22.4497 22.2233 22.4019 22.2515C21.7969 22.6081 21.168 22.9094 20.5066 23.1611C20.4635 23.1776 20.4443 23.2282 20.4654 23.2699C20.8301 23.9822 21.2465 24.6605 21.705 25.3039C21.7242 25.3311 21.7586 25.3427 21.7902 25.333C23.7745 24.714 25.7866 23.7801 27.8638 22.2418C27.882 22.2282 27.8935 22.2078 27.8954 22.1854C28.4018 16.9028 27.0473 12.3141 24.3048 8.24625C24.2981 8.23266 24.2867 8.22294 24.2733 8.21711ZM12.1153 19.3988C10.9187 19.3988 9.93277 18.291 9.93277 16.9305C9.93277 15.57 10.8996 14.4622 12.1153 14.4622C13.3405 14.4622 14.3169 15.5798 14.2977 16.9305C14.2977 18.291 13.3309 19.3988 12.1153 19.3988ZM19.8997 19.4023C18.7031 19.4023 17.7172 18.2944 17.7172 16.9339C17.7172 15.5735 18.684 14.4656 19.8997 14.4656C21.1249 14.4656 22.1013 15.5832 22.0822 16.9339C22.0822 18.2944 21.1249 19.4023 19.8997 19.4023Z" fill="white"/>
</svg>
