<svg width="81" height="45" viewBox="0 0 81 45" fill="none" xmlns="http://www.w3.org/2000/svg">
<path d="M66.1508 0H48.5901C47.7726 0 47.1109 0.661638 47.1109 1.4792V2.09447L62.9291 12.1686C63.4052 12.472 63.6939 12.9988 63.6939 13.5635V30.254H66.1487C74.1663 30.254 80.6667 23.7535 80.6667 15.736V14.5201C80.6689 6.50045 74.1684 0 66.1508 0Z" fill="#F28004"/>
<path d="M22.0194 9.53681L21.9604 14.2294H12.0042L1.27061 3.4957C-0.0189465 2.20614 0.893426 0.00210917 2.7182 0.00210917H12.4868L22.0194 9.53681Z" fill="#F28004"/>
<path d="M12.708 33.5558L22.0194 24.2445L22.0173 19.6109H11.9432L1.49184 30.0622C0.204394 31.3497 1.11468 33.5558 2.93943 33.5558H12.708Z" fill="#F28004"/>
<path d="M31.5566 0H41.321C43.1457 0 44.0581 2.20615 42.7685 3.4957L29.3757 16.8885L22.0219 9.5347L31.5566 0Z" fill="#1D9CED"/>
<path d="M59.9142 12.1686L47.1134 2.09447V34.6768C47.1134 35.2415 47.3473 35.7683 47.7329 36.0717L58.4792 44.5276C59.3705 45.2293 60.5357 44.437 60.5357 43.1327V13.5614C60.5337 12.9988 60.2997 12.472 59.9142 12.1686Z" fill="#1D9CED"/>
<path d="M22.0198 24.2445L31.3311 33.5558H41.0955C42.9203 33.5558 43.8348 31.3497 42.5431 30.0601L29.3715 16.8885L22.0198 24.2445Z" fill="#1D9CED"/>
</svg>
