<svg width="150" height="45" viewBox="0 0 150 45" fill="none" xmlns="http://www.w3.org/2000/svg">
<g id="horizon">
<g id="Vector">
<path d="M12.2039 21.272C12.2039 16.4298 16.1238 12.5 20.9539 12.5C25.7839 12.5 29.7039 16.4298 29.7039 21.272H12.2039Z" fill="#B6C1E1"/>
<path d="M33.554 23.3772C33.554 22.9912 33.239 22.6754 32.8538 22.6754H9.05396C8.92065 22.6754 8.79565 22.7133 8.68921 22.7786C8.48853 22.9022 8.35376 23.1246 8.35376 23.3772C8.35376 23.7632 8.6687 24.079 9.05396 24.079H11.5037C11.8889 24.079 12.2039 24.3947 12.2039 24.7808C12.2039 24.8069 12.2024 24.8328 12.1995 24.8582C12.1609 25.208 11.863 25.4825 11.5037 25.4825H10.4539C10.0686 25.4825 9.75366 25.7983 9.75366 26.1842C9.75366 26.5702 10.0686 26.886 10.4539 26.886H15.3538C15.739 26.886 16.054 26.5702 16.054 26.1842C16.054 25.9541 15.9417 25.7489 15.7698 25.6208C15.6536 25.5341 15.5095 25.4825 15.3538 25.4825H14.304C13.9187 25.4825 13.6038 25.1667 13.6038 24.7808C13.6038 24.3947 13.9187 24.079 14.304 24.079H32.8538C33.239 24.079 33.554 23.7632 33.554 23.3772Z" fill="#B6C1E1"/>
<path d="M18.1541 25.4824H32.1541C32.5388 25.4824 32.8543 25.7982 32.8543 26.1842C32.8543 26.5701 32.5388 26.8859 32.1541 26.8859H28.304C27.9192 26.8859 27.6043 27.2017 27.6043 27.5876C27.6043 27.9738 27.9192 28.2896 28.304 28.2896H30.4041C30.6267 28.2896 30.8259 28.3953 30.9543 28.5591C31.0481 28.6783 31.1043 28.8285 31.1043 28.9912C31.1043 29.3772 30.7888 29.693 30.4041 29.693H22.3542C21.969 29.693 21.6541 30.0088 21.6541 30.3948C21.6541 30.7808 21.969 31.0966 22.3542 31.0966H25.1541C25.5388 31.0966 25.8542 31.4122 25.8542 31.7982C25.8542 31.8822 25.8391 31.9629 25.8118 32.0377C25.7795 32.1262 25.7297 32.2065 25.6667 32.2745C25.5388 32.413 25.3562 32.5 25.1541 32.5H16.7542C16.3689 32.5 16.054 32.1842 16.054 31.7982C16.054 31.4122 16.3689 31.0966 16.7542 31.0966H19.554C19.9392 31.0966 20.2542 30.7808 20.2542 30.3948C20.2542 30.0088 19.9392 29.693 19.554 29.693H11.8542C11.469 29.693 11.1541 29.3772 11.1541 28.9912C11.1541 28.6052 11.469 28.2896 11.8542 28.2896H25.5042C25.8889 28.2896 26.2039 27.9738 26.2039 27.5876C26.2039 27.2017 25.8889 26.8859 25.5042 26.8859H18.1541C17.9851 26.8859 17.8298 26.8253 17.7087 26.7249C17.5535 26.5958 17.4539 26.4011 17.4539 26.1842C17.4539 25.7982 17.7688 25.4824 18.1541 25.4824Z" fill="#B6C1E1"/>
<path d="M91.7592 15.985C91.7592 15.474 91.4408 15.027 90.8035 15.027C90.2301 15.027 89.9115 15.474 89.8478 15.9212V29.3345C89.8478 29.7817 90.2301 30.2287 90.8035 30.2287C91.3133 30.2287 91.7592 29.8455 91.7592 29.2068V15.985Z" fill="#B6C1E1"/>
<path d="M41.6171 15.985C41.6171 15.5379 41.2985 15.027 40.6614 15.027C40.2154 15.027 39.7694 15.4102 39.7694 15.8573V29.2706C39.7694 29.7817 40.2791 30.1648 40.7251 30.1648C41.2985 30.1648 41.7445 29.7176 41.6808 29.2068V23.6499H50.0272V29.2068C49.9635 29.7176 50.4732 30.1009 50.9192 30.1009C51.4926 30.1009 51.8749 29.6538 51.8749 29.1429V15.9212C51.8749 15.4102 51.4926 14.9632 50.9192 14.9632C50.6006 14.9632 50.0272 15.2825 50.0272 15.7935V21.7337H41.6171V15.985Z" fill="#B6C1E1"/>
<path d="M81.6288 14.9632H75.5761C75.2575 14.9632 74.6203 15.3463 74.6203 15.7935V29.4622C74.6203 30.0371 75.1301 30.3564 75.5123 30.3564C75.9584 30.3564 76.4681 30.0371 76.4681 29.3984V16.8155H81.5651C83.0305 16.8793 83.9862 17.7096 83.9862 19.1148C83.9862 20.2645 83.0305 21.2227 81.8836 21.2227H80.3547C79.7175 21.2227 79.2078 22.053 79.7175 22.7556C79.9722 23.075 83.795 28.3763 84.8144 29.8455C85.4516 30.8035 87.1083 29.9094 86.2799 28.6958C86.0832 28.4219 85.849 28.0954 85.5937 27.7395C84.3607 26.0203 82.6355 23.6151 82.2659 23.1389C84.8782 22.5001 85.8976 21.031 85.8976 19.1148C85.8976 16.2406 83.4765 14.9632 81.6288 14.9632Z" fill="#B6C1E1"/>
<path d="M130.74 15.2977C130.472 15.1506 130.213 15.0085 129.987 14.9632C129.414 14.8353 128.904 15.2186 128.84 15.7296V29.4622C128.84 30.0371 129.35 30.3564 129.796 30.3564C130.369 30.3564 130.752 29.9094 130.752 29.2706V17.5819C133.491 19.3065 136.741 22.7556 137.951 25.3743C138.11 25.7576 138.317 26.1248 138.525 26.492C138.732 26.8593 138.939 27.2266 139.098 27.6099C139.174 27.763 139.251 27.9849 139.327 28.2069C139.378 28.3554 139.429 28.5039 139.48 28.6319C139.508 28.7144 139.534 28.8047 139.561 28.8989C139.724 29.4618 139.927 30.1648 140.691 30.1648C141.328 30.1648 141.646 29.7176 141.646 29.2706V15.9212C141.646 15.474 141.328 14.9632 140.691 14.9632C140.245 14.9632 139.799 15.2825 139.799 15.9212V24.6717C139.098 23.3943 138.079 21.7976 136.996 20.5201C135.148 18.2845 133.045 16.6876 131.07 15.474C130.96 15.4185 130.849 15.3577 130.74 15.2977Z" fill="#B6C1E1"/>
<path d="M107.178 14.8353H96.9199C96.2192 14.8353 95.9005 15.3463 95.9005 15.7935C95.9005 16.3683 96.3466 16.7515 97.0475 16.7515H105.394C102.782 20.073 100.169 23.3943 97.6208 26.7158C97.5917 26.745 97.3892 27.0014 97.1233 27.3383C96.8078 27.7379 96.4029 28.2507 96.0917 28.6319C95.3908 29.5261 96.0281 30.2925 96.7289 30.2925H107.114C107.942 30.2925 108.197 29.7817 108.197 29.3345C108.197 28.7596 107.815 28.3763 107.114 28.3763H98.7039C100.922 25.6356 103.14 22.7692 105.324 19.9466C105.838 19.283 106.35 18.6217 106.859 17.9651C107.24 17.5194 107.621 17.0102 108.002 16.5007L108.006 16.496C108.579 15.7935 108.07 14.8353 107.178 14.8353Z" fill="#B6C1E1"/>
<path fill-rule="evenodd" clip-rule="evenodd" d="M125.591 22.5001C125.591 18.2206 122.214 14.6437 117.754 14.6437C113.485 14.6437 109.917 18.0291 109.917 22.5001C109.917 26.7796 113.294 30.3564 117.754 30.3564C122.023 30.3564 125.591 26.9712 125.591 22.5001ZM123.807 22.5001C123.807 19.2425 121.195 16.4322 117.754 16.4322C114.505 16.4322 111.765 19.0509 111.702 22.5001C111.702 25.7576 114.314 28.5681 117.754 28.5681C121.004 28.5681 123.807 25.9492 123.807 22.5001Z" fill="#B6C1E1"/>
<path fill-rule="evenodd" clip-rule="evenodd" d="M71.3711 22.5001C71.3711 18.2206 67.9943 14.6437 63.5343 14.6437C59.2656 14.6437 55.6976 18.0291 55.6976 22.5001C55.6976 26.7796 59.0744 30.3564 63.5343 30.3564C67.8031 30.3564 71.3711 26.9712 71.3711 22.5001ZM69.5871 22.5001C69.5871 19.2425 66.9748 16.4322 63.5343 16.4322C60.285 16.4322 57.5452 19.0509 57.4816 22.5001C57.4816 25.7576 60.0938 28.5681 63.5343 28.5681C66.7837 28.5681 69.5871 25.9492 69.5871 22.5001Z" fill="#B6C1E1"/>
</g>
</g>
</svg>
