<svg width="28" height="28" viewBox="0 0 28 28" fill="none" xmlns="http://www.w3.org/2000/svg">
<path d="M14.001 3.5C11.1493 3.5 10.7915 3.51247 9.67144 3.56344C8.55362 3.61463 7.79061 3.79159 7.12298 4.05125C6.43237 4.31944 5.84656 4.67819 5.26292 5.26203C4.67886 5.84566 4.3201 6.43147 4.05104 7.12184C3.79072 7.78969 3.61353 8.55291 3.56322 9.67028C3.51313 10.7903 3.5 11.1484 3.5 14C3.5 16.8516 3.51269 17.2084 3.56344 18.3284C3.61485 19.4462 3.79182 20.2092 4.05126 20.8768C4.31966 21.5674 4.67842 22.1532 5.26227 22.7369C5.84568 23.3209 6.4315 23.6806 7.12166 23.9487C7.78973 24.2084 8.55296 24.3854 9.67056 24.4366C10.7906 24.4875 11.1482 24.5 13.9997 24.5C16.8515 24.5 17.2083 24.4875 18.3283 24.4366C19.4462 24.3854 20.21 24.2084 20.8781 23.9487C21.5685 23.6806 22.1534 23.3209 22.7369 22.7369C23.3209 22.1532 23.6797 21.5674 23.9487 20.8771C24.2069 20.2092 24.3841 19.446 24.4366 18.3286C24.4869 17.2086 24.5 16.8516 24.5 14C24.5 11.1484 24.4869 10.7905 24.4366 9.6705C24.3841 8.55269 24.2069 7.78969 23.9487 7.12206C23.6797 6.43147 23.3209 5.84566 22.7369 5.26203C22.1528 4.67797 21.5687 4.31922 20.8775 4.05125C20.2081 3.79159 19.4446 3.61463 18.3268 3.56344C17.2068 3.51247 16.8502 3.5 13.9977 3.5H14.001ZM13.059 5.39219C13.3386 5.39175 13.6505 5.39219 14.001 5.39219C16.8045 5.39219 17.1368 5.40225 18.2439 5.45256C19.2677 5.49938 19.8233 5.67044 20.1934 5.81416C20.6834 6.00447 21.0328 6.23197 21.4001 6.59947C21.7676 6.96697 21.9951 7.31697 22.1858 7.80697C22.3295 8.17666 22.5008 8.73228 22.5474 9.75603C22.5977 10.8629 22.6087 11.1954 22.6087 13.9976C22.6087 16.7998 22.5977 17.1323 22.5474 18.2392C22.5006 19.2629 22.3295 19.8185 22.1858 20.1882C21.9955 20.6782 21.7676 21.0271 21.4001 21.3944C21.0326 21.7619 20.6836 21.9894 20.1934 22.1797C19.8237 22.3241 19.2677 22.4947 18.2439 22.5415C17.137 22.5918 16.8045 22.6028 14.001 22.6028C11.1972 22.6028 10.865 22.5918 9.75807 22.5415C8.7343 22.4943 8.17867 22.3232 7.80833 22.1795C7.31832 21.9892 6.96832 21.7617 6.60081 21.3942C6.23331 21.0267 6.00581 20.6776 5.81506 20.1873C5.67133 19.8177 5.50005 19.262 5.45346 18.2383C5.40314 17.1314 5.39308 16.7989 5.39308 13.995C5.39308 11.191 5.40314 10.8603 5.45346 9.75341C5.50027 8.72966 5.67133 8.17403 5.81506 7.80391C6.00537 7.31391 6.23331 6.96391 6.60081 6.59641C6.96832 6.22891 7.31832 6.00141 7.80833 5.81066C8.17845 5.66628 8.7343 5.49566 9.75807 5.44863C10.7267 5.40488 11.1021 5.39175 13.059 5.38956V5.39219ZM19.6059 7.13562C18.9102 7.13562 18.3458 7.69934 18.3458 8.39519C18.3458 9.09081 18.9102 9.65519 19.6059 9.65519C20.3015 9.65519 20.8659 9.09081 20.8659 8.39519C20.8659 7.69956 20.3015 7.13519 19.6059 7.13519V7.13562ZM14.001 8.60781C11.0231 8.60781 8.60874 11.0222 8.60874 14C8.60874 16.9778 11.0231 19.3911 14.001 19.3911C16.9789 19.3911 19.3924 16.9778 19.3924 14C19.3924 11.0222 16.9789 8.60781 14.001 8.60781ZM14.001 10.5C15.9339 10.5 17.501 12.0669 17.501 14C17.501 15.9329 15.9339 17.5 14.001 17.5C12.0679 17.5 10.5009 15.9329 10.5009 14C10.5009 12.0669 12.0679 10.5 14.001 10.5Z" fill="white"/>
</svg>
