<svg width="85" height="45" viewBox="0 0 85 45" fill="none" xmlns="http://www.w3.org/2000/svg">
<g id="okx-wallet">
<g id="Vector">
<path fill-rule="evenodd" clip-rule="evenodd" d="M28.7182 12.5H9.60776C9.53478 12.5 9.46376 12.5178 9.40059 12.551C9.36136 12.5716 9.32526 12.5982 9.29347 12.6302C9.2099 12.7134 9.16321 12.8266 9.16321 12.9445V32.0552C9.16321 32.1731 9.2099 32.2861 9.29347 32.3693C9.37666 32.4527 9.48966 32.4995 9.60776 32.4995H28.7182C28.8363 32.4995 28.9493 32.4527 29.0324 32.3693C29.076 32.3258 29.1097 32.2741 29.1317 32.2179C29.1376 32.2035 29.1423 32.1887 29.1466 32.1736C29.1506 32.1598 29.1537 32.1458 29.156 32.1316C29.1604 32.1066 29.1627 32.0809 29.1627 32.0552V12.9445C29.1627 12.8266 29.116 12.7134 29.0324 12.6302C28.9493 12.5468 28.8363 12.5 28.7182 12.5ZM22.4963 25.3886C22.4963 25.4574 22.4803 25.5246 22.45 25.5853C22.4379 25.6103 22.423 25.6342 22.4061 25.6567C22.3939 25.673 22.3806 25.6884 22.3661 25.7029C22.2829 25.7862 22.1695 25.8331 22.0518 25.8331H16.2741C16.2573 25.8331 16.2404 25.8322 16.2235 25.8303C16.1902 25.8265 16.158 25.819 16.1266 25.808C16.0646 25.7862 16.0073 25.7504 15.9598 25.7029C15.9147 25.6576 15.8802 25.6034 15.8578 25.5445C15.8394 25.4951 15.8296 25.4423 15.8296 25.3886V19.6109C15.8296 19.493 15.8767 19.38 15.9598 19.2967C16.0434 19.2134 16.1564 19.1666 16.2741 19.1666H22.0518C22.1008 19.1666 22.1491 19.1747 22.1946 19.1902L22.2193 19.1996L22.2417 19.2093C22.2578 19.2169 22.2735 19.2254 22.2888 19.2349L22.3033 19.2447L22.3194 19.2563L22.3335 19.267C22.3449 19.2763 22.3555 19.2862 22.3661 19.2967C22.4493 19.38 22.4963 19.493 22.4963 19.6109V25.3886Z" fill="#B6C1E1"/>
<path d="M68.7286 19.1673H62.9509C62.8716 19.1673 62.7971 19.1881 62.7327 19.2243C62.5974 19.3006 62.5063 19.4454 62.5063 19.6116V25.3894C62.5063 25.6348 62.7053 25.8338 62.9509 25.8338H68.7286C68.9738 25.8338 69.1727 25.6348 69.1727 25.3894V19.6116C69.1727 19.3662 68.9738 19.1673 68.7286 19.1673Z" fill="#B6C1E1"/>
<path d="M56.2818 12.5006H62.0594C62.1885 12.5006 62.3047 12.5557 62.3859 12.6438C62.4589 12.723 62.5036 12.8288 62.5036 12.945V18.7227C62.5036 18.9681 62.3047 19.1672 62.0594 19.1672H56.2818C56.1531 19.1672 56.0369 19.1124 55.9557 19.025C55.9334 19.0007 55.9133 18.9737 55.8965 18.9448C55.8741 18.906 55.8572 18.8637 55.8474 18.8186C55.8408 18.7877 55.8372 18.7557 55.8372 18.7227V12.945C55.8372 12.6995 56.0362 12.5006 56.2818 12.5006Z" fill="#B6C1E1"/>
<path d="M75.3926 12.5006H69.6149L69.5761 12.5023L69.5482 12.5055C69.5125 12.5109 69.4784 12.5205 69.4458 12.5338C69.3987 12.5533 69.3556 12.5805 69.3183 12.6141C69.2583 12.6678 69.2131 12.7376 69.1892 12.8165C69.177 12.8573 69.1704 12.9004 69.1704 12.945V18.7227C69.1704 18.9681 69.3693 19.1672 69.6149 19.1672H75.3926C75.4954 19.1672 75.5899 19.1323 75.6649 19.0738C75.7194 19.0311 75.7641 18.976 75.7944 18.9125C75.8061 18.8877 75.8156 18.8616 75.8226 18.8345C75.8265 18.8192 75.8297 18.8035 75.832 18.7876C75.8352 18.7664 75.8367 18.7448 75.8367 18.7227V12.945C75.8367 12.8347 75.7967 12.7338 75.73 12.656C75.6484 12.5608 75.5275 12.5006 75.3926 12.5006Z" fill="#B6C1E1"/>
<path d="M56.2818 25.8334H62.0594C62.3047 25.8334 62.5036 26.0324 62.5036 26.2778V32.0555C62.5036 32.301 62.3047 32.5 62.0594 32.5H56.2818C56.2092 32.5 56.1405 32.4826 56.0801 32.4519C56.0236 32.4232 55.9742 32.3826 55.9349 32.3334C55.8737 32.2573 55.8372 32.1607 55.8372 32.0555V26.2778C55.8372 26.0324 56.0362 25.8334 56.2818 25.8334Z" fill="#B6C1E1"/>
<path d="M75.3926 25.8334H69.6149C69.3693 25.8334 69.1704 26.0324 69.1704 26.2778V32.0555C69.1704 32.1075 69.1794 32.1574 69.1959 32.2037C69.2147 32.2568 69.2433 32.3054 69.2794 32.3471C69.3607 32.4408 69.4807 32.5 69.6149 32.5H75.3926C75.6378 32.5 75.8367 32.301 75.8367 32.0555V26.2778C75.8367 26.0324 75.6378 25.8334 75.3926 25.8334Z" fill="#B6C1E1"/>
<path d="M46.2736 12.5006H52.0512C52.2965 12.5006 52.4954 12.6995 52.4954 12.945V18.7227C52.4954 18.9681 52.2965 19.1672 52.0512 19.1672H46.2736C46.1524 19.1672 46.0421 19.1185 45.9617 19.0397C45.8797 18.9591 45.829 18.8468 45.829 18.7227V12.945C45.829 12.8877 45.84 12.8328 45.8596 12.7825C45.8765 12.7398 45.8997 12.7003 45.9283 12.6652C45.9621 12.6234 46.0033 12.5879 46.0499 12.5606C46.1159 12.5225 46.192 12.5006 46.2736 12.5006Z" fill="#B6C1E1"/>
<path d="M52.0512 25.8334H46.2736C46.028 25.8334 45.829 26.0324 45.829 26.2778V32.0555C45.829 32.301 46.028 32.5 46.2736 32.5H52.0512C52.2965 32.5 52.4954 32.301 52.4954 32.0555V26.2778C52.4954 26.0324 52.2965 25.8334 52.0512 25.8334Z" fill="#B6C1E1"/>
<path d="M45.6988 19.2917C45.782 19.375 45.829 19.488 45.829 19.6059V25.3836C45.829 25.4432 45.8169 25.5016 45.7941 25.5555C45.7721 25.6082 45.74 25.6567 45.6988 25.6979C45.6156 25.7812 45.5022 25.8281 45.3845 25.8281H39.1623V32.0451C39.1623 32.1631 39.1156 32.2761 39.0324 32.3593C38.9488 32.4427 38.8358 32.4895 38.7181 32.4895H32.9405C32.8224 32.4895 32.7094 32.4427 32.6262 32.3593C32.5732 32.3064 32.5347 32.2414 32.514 32.1709C32.5022 32.1305 32.4959 32.0881 32.4959 32.0451V12.9445C32.4959 12.8596 32.5202 12.7773 32.565 12.7068C32.5822 12.6792 32.6026 12.6535 32.6262 12.6302C32.7094 12.5468 32.8224 12.5 32.9405 12.5H38.7181C38.8358 12.5 38.9488 12.5468 39.0324 12.6302C39.1156 12.7134 39.1623 12.8266 39.1623 12.9445V19.1616H45.3845C45.5022 19.1616 45.6156 19.2084 45.6988 19.2917Z" fill="#B6C1E1"/>
</g>
</g>
</svg>
