<svg width="20" height="20" viewBox="0 0 20 20" fill="none" xmlns="http://www.w3.org/2000/svg">
<path d="M17.5008 3.38362L13.5245 7.35989L12.6409 6.47628L16.6172 2.5L17.5008 3.38362Z" fill="white"/>
<path d="M6.477 7.3621L2.50059 3.38569L3.38434 2.50194L7.36075 6.47835L6.477 7.3621Z" fill="white"/>
<path d="M10.6245 10.3129V15.0002H13.125V16.25H6.87505V15.0002H9.37467V10.3129H10.6245Z" fill="white"/>
<path d="M9.99958 2.50075C8.96445 2.50075 8.12468 3.34052 8.12468 4.37565C8.12468 5.41191 8.96445 6.25056 9.99958 6.25056C11.0358 6.25056 11.8745 5.41191 11.8745 4.37565C11.8745 3.34052 11.0358 2.50075 9.99958 2.50075Z" fill="white"/>
<path d="M8.74957 6.87546H11.2496C11.9392 6.87546 12.4994 7.43587 12.4994 8.12546V9.37546H7.49958V8.12546C7.49958 7.43568 8.0598 6.87546 8.74957 6.87546Z" fill="white"/>
<path d="M4.99982 10.6253C3.96468 10.6253 3.12491 11.4651 3.12491 12.5002C3.12491 13.5365 3.96468 14.3751 4.99982 14.3751C6.03608 14.3751 6.87472 13.5365 6.87472 12.5002C6.87472 11.4652 6.03626 10.6253 4.99982 10.6253Z" fill="white"/>
<path d="M3.75 15.0002H5.6249V17.5H2.5V16.25C2.5 15.5604 3.06041 15.0002 3.75 15.0002Z" fill="white"/>
<path d="M14.3744 15.0002H16.2493C16.939 15.0002 17.4993 15.5604 17.4993 16.25V17.5H14.3744V15.0002Z" fill="white"/>
<path d="M13.1245 12.5002C13.1245 11.4651 13.9643 10.6253 14.9994 10.6253C16.0357 10.6253 16.8743 11.4652 16.8743 12.5002C16.8743 13.5365 16.0357 14.3751 14.9994 14.3751C13.9643 14.3751 13.1245 13.5365 13.1245 12.5002Z" fill="white"/>
</svg>
