<svg width="125" height="45" viewBox="0 0 125 45" fill="none" xmlns="http://www.w3.org/2000/svg">
<g id="polygon">
<g id="Vector">
<path d="M32.3366 23.7405L25.6417 27.6062L25.6397 27.6043C25.2868 27.8077 24.8462 27.8077 24.4913 27.6043L21.9732 26.1509V22.5143L25.0656 24.2987L29.7608 21.5893V16.1683L25.0656 13.4589L20.456 16.1205L20.3723 16.1683V29.9868C20.3723 30.3955 20.153 30.7763 19.7981 30.9816L13.1032 34.8475C12.7484 35.0508 12.3097 35.0508 11.9549 34.8475L5.25993 30.9816C4.90504 30.7763 4.68573 30.3955 4.68573 29.9868V22.2552C4.68573 21.8465 4.90504 21.4656 5.25993 21.2603L11.9549 17.3945C12.1283 17.2948 12.3276 17.2409 12.529 17.2409C12.7304 17.2409 12.9297 17.2948 13.1032 17.3945L15.6253 18.8518V22.4884L12.529 20.7001L7.83381 23.4096V28.8304L12.529 31.5399L17.2242 28.8304V15.014C17.2242 14.6052 17.4436 14.2244 17.7984 14.0191L24.4933 10.1533C24.8462 9.94991 25.2868 9.94792 25.6417 10.1533L32.3366 14.0191C32.6915 14.2244 32.9108 14.6052 32.9108 15.014V22.7456C32.9108 23.1543 32.6915 23.5351 32.3366 23.7405Z" fill="#B6C1E1"/>
<path d="M67.6164 13.301H70.3398V28.9258H67.6164V13.301Z" fill="#B6C1E1"/>
<path fill-rule="evenodd" clip-rule="evenodd" d="M41.4936 17.6293V33.3878L41.4956 33.3857H44.2189V27.7615H44.3306C44.9108 28.4971 46.0034 29.1451 47.5665 29.1451C50.4694 29.1451 52.79 26.7786 52.79 23.2757C52.79 19.7726 50.4673 17.406 47.5665 17.406C45.9814 17.406 44.843 18.0301 44.1732 18.9013H44.0615L43.8382 17.6293H41.4936ZM47.1398 19.9302C48.7468 19.9302 50.0646 21.2241 50.0646 23.2776C50.0646 25.3312 48.7468 26.6251 47.1398 26.6251C45.5328 26.6251 44.215 25.3312 44.215 23.2776C44.215 21.2241 45.5328 19.9302 47.1398 19.9302Z" fill="#B6C1E1"/>
<path fill-rule="evenodd" clip-rule="evenodd" d="M59.9085 17.4088C56.6268 17.4088 54.1725 19.863 54.1725 23.2782C54.1725 26.6696 56.6268 29.1478 59.9085 29.1478C63.1901 29.1478 65.6444 26.6935 65.6444 23.2782C65.6444 19.863 63.1901 17.4088 59.9085 17.4088ZM59.9085 19.9308C61.5593 19.9308 62.8991 21.2686 62.8991 23.2782C62.8991 25.2879 61.5593 26.6038 59.9085 26.6038C58.2576 26.6038 56.896 25.286 56.896 23.2782C56.896 21.2706 58.2576 19.9308 59.9085 19.9308Z" fill="#B6C1E1"/>
<path d="M83.3517 17.6295H80.4508L77.8171 25.4648H77.3705L74.4457 17.6295H71.5448L76.1423 29.5938L75.8752 30.3295C75.7396 30.6644 75.5183 30.8658 75.1156 30.8658H72.8826V33.3878H75.5163C77.2807 33.3878 77.9507 32.7179 78.4411 31.3563L83.3517 17.6295Z" fill="#B6C1E1"/>
<path fill-rule="evenodd" clip-rule="evenodd" d="M83.8724 29.482H86.6397C86.7514 30.2178 87.4871 31.2226 89.2296 31.2226C90.8584 31.2226 91.9311 30.1958 91.9311 28.6327V27.0478H91.8194C91.2173 27.6956 90.1009 28.2759 88.6713 28.2759C85.7705 28.2759 83.5375 26.0428 83.5375 22.829C83.5375 19.6151 85.7705 17.406 88.6713 17.406C90.1666 17.406 91.2612 18.0081 91.9529 18.8575H92.0646L92.2879 17.6293H94.6545V28.6327C94.6545 31.6233 92.6448 33.6111 89.2296 33.6111C85.4137 33.6111 83.9403 31.1109 83.8724 29.482ZM91.9311 22.831C91.9311 21.0685 90.681 19.8404 89.096 19.8404C87.511 19.8404 86.2829 21.0685 86.2829 22.831C86.2829 24.5935 87.533 25.8436 89.096 25.8436C90.6591 25.8436 91.9311 24.6153 91.9311 22.831Z" fill="#B6C1E1"/>
<path fill-rule="evenodd" clip-rule="evenodd" d="M102.283 17.4088C99.0014 17.4088 96.5471 19.863 96.5471 23.2782C96.5471 26.6696 99.0014 29.1478 102.283 29.1478C105.565 29.1478 108.019 26.6935 108.019 23.2782C108.019 19.863 105.565 17.4088 102.283 17.4088ZM102.283 19.9308C103.934 19.9308 105.274 21.2686 105.274 23.2782C105.274 25.2879 103.934 26.6038 102.283 26.6038C100.632 26.6038 99.2706 25.286 99.2706 23.2782C99.2706 21.2706 100.632 19.9308 102.283 19.9308Z" fill="#B6C1E1"/>
<path d="M109.915 28.9238V28.9218H112.636V22.4941C112.636 21.0885 113.753 19.9939 115.159 19.9939C116.564 19.9939 117.591 21.0426 117.591 22.4941V28.9218H120.314V22.1372C120.314 19.2801 118.44 17.406 115.851 17.406C114.156 17.406 113.039 18.1876 112.593 18.7H112.481L112.258 17.6293H109.915V28.9218H109.913L109.915 28.9238Z" fill="#B6C1E1"/>
</g>
</g>
</svg>
