<svg width="33" height="32" viewBox="0 0 33 32" fill="none" xmlns="http://www.w3.org/2000/svg">
<path fill-rule="evenodd" clip-rule="evenodd" d="M16.5 28C23.1274 28 28.5 22.6274 28.5 16C28.5 9.37258 23.1274 4 16.5 4C9.87258 4 4.5 9.37258 4.5 16C4.5 22.6274 9.87258 28 16.5 28ZM14.1001 23.2C14.1001 24.2314 14.9353 25.0669 15.9667 25.0669C16.998 25.0669 17.8332 24.2314 17.8332 23.2C17.8332 22.1699 16.998 21.3334 15.9667 21.3334C14.9353 21.3334 14.1001 22.1699 14.1001 23.2ZM17.8143 17.7389L19.3603 16.192C20.2291 15.3242 20.7667 14.1242 20.7667 12.8C20.7667 10.1501 18.6175 8 15.9667 8C13.3167 8 11.1667 10.1482 11.1667 12.8H13.3001C13.3001 11.327 14.4937 10.1334 15.9667 10.1334C17.4396 10.1334 18.6332 11.327 18.6332 12.8C18.6332 13.5357 18.3347 14.2022 17.8521 14.6835L16.3065 16.2314C15.3689 17.1677 14.9001 18.3968 14.9001 19.625V19.7334H17.0332V19.6253C17.0332 18.943 17.2937 18.2595 17.8143 17.7389Z" fill="white"/>
</svg>
