<svg width="130" height="45" viewBox="0 0 130 45" fill="none" xmlns="http://www.w3.org/2000/svg">
<g id="skymavis">
<g id="Vector">
<path fill-rule="evenodd" clip-rule="evenodd" d="M26.1542 7.5C25.9498 7.50348 25.7469 7.53186 25.5503 7.58423C25.4078 7.62213 25.2687 7.67267 25.1346 7.73538C24.8149 7.88452 24.5304 8.09949 24.2993 8.366C24.0642 8.09692 23.7749 7.88068 23.4501 7.73145C23.1256 7.58221 22.7729 7.5033 22.4155 7.5C21.7655 7.5 21.1418 7.75827 20.6823 8.21814C20.2223 8.67792 19.9641 9.30148 19.9641 9.95169C19.9641 10.602 20.2223 11.2256 20.6823 11.6853C21.1418 12.1451 21.7655 12.4035 22.4155 12.4035C22.7795 12.4107 23.141 12.3388 23.4746 12.1928V14.1764H25.101V12.1928C25.4327 12.338 25.792 12.4099 26.1542 12.4035C26.8042 12.4035 27.4279 12.1451 27.8875 11.6853C28.3474 11.2256 28.6056 10.602 28.6056 9.95169C28.6056 9.30148 28.3474 8.67792 27.8875 8.21814C27.4279 7.75827 26.8042 7.5 26.1542 7.5ZM26.0897 10.964C26.0677 10.9643 26.0458 10.9638 26.0238 10.9626C25.9121 10.9567 25.8019 10.9323 25.6979 10.8905C25.5734 10.8403 25.4602 10.7661 25.3643 10.672C25.2687 10.578 25.1925 10.4659 25.1405 10.3423C25.1086 10.2668 25.0859 10.188 25.0731 10.1075C25.0647 10.0562 25.0603 10.0041 25.0599 9.95169C25.0537 9.86856 25.0577 9.78516 25.0713 9.70331C25.0808 9.64526 25.0955 9.58795 25.1152 9.5321C25.1621 9.39752 25.2365 9.27411 25.3335 9.16965C25.4302 9.06509 25.5477 8.98169 25.6785 8.92474C25.8092 8.86771 25.9502 8.83823 26.0927 8.83823C26.1732 8.83823 26.2531 8.84766 26.3311 8.86615C26.3911 8.88034 26.4501 8.89993 26.5068 8.92474C26.5739 8.95395 26.6376 8.99011 26.6965 9.0325C26.7328 9.05859 26.7672 9.08707 26.7998 9.11774C26.8177 9.1344 26.835 9.1517 26.8518 9.16965C26.9489 9.27411 27.0232 9.39752 27.0701 9.5321C27.1173 9.66669 27.136 9.8096 27.1254 9.95169C27.1246 10.0865 27.0972 10.2197 27.0444 10.3436C26.9921 10.4677 26.9152 10.58 26.8188 10.6741C26.7225 10.7682 26.6086 10.8424 26.4834 10.8921C26.3582 10.9419 26.2245 10.9664 26.0897 10.964ZM22.48 10.964C22.2115 10.964 21.9541 10.8573 21.764 10.6675C21.5743 10.4777 21.4678 10.2202 21.4678 9.95169C21.4663 9.6806 21.5714 9.41977 21.7611 9.22586C21.9504 9.03195 22.209 8.92062 22.48 8.91605C22.6177 8.91376 22.7546 8.93875 22.8824 8.98965C23.0106 9.04056 23.1271 9.11646 23.2256 9.21277C23.3241 9.30908 23.4025 9.42398 23.4563 9.55087C23.5101 9.67767 23.5383 9.814 23.5391 9.95169C23.5365 10.088 23.5072 10.2224 23.4526 10.3473C23.3981 10.4722 23.3193 10.5849 23.2208 10.6791C23.1223 10.7732 23.0062 10.8469 22.8788 10.8958C22.7517 10.9448 22.6162 10.9679 22.48 10.964Z" fill="#B6C1E1"/>
<path d="M112.435 18.195C112.754 17.9821 113.128 17.8686 113.51 17.8686C114.024 17.8701 114.515 18.0747 114.878 18.4375C115.241 18.8005 115.446 19.2922 115.447 19.8054C115.447 20.1885 115.333 20.5629 115.12 20.8814C114.908 21.2 114.605 21.4482 114.252 21.5947C113.898 21.7414 113.509 21.7798 113.133 21.705C112.757 21.6302 112.412 21.4459 112.142 21.175C111.871 20.9041 111.686 20.559 111.611 20.1833C111.579 20.0198 111.568 19.8538 111.578 19.6891C111.59 19.4754 111.639 19.2642 111.722 19.0642C111.868 18.7104 112.116 18.4079 112.435 18.195Z" fill="#B6C1E1"/>
<path d="M63.7567 23.1349L66.1906 29.6241L68.4197 23.1349H71.9302C71.9236 23.1583 71.8943 23.2404 71.8459 23.3721L71.6844 23.8074L71.327 24.7585L70.7151 26.376L69.5487 29.4484C69.0389 30.7896 68.5717 32.0197 68.2966 32.7487C67.068 36.0664 66.1906 37.5 63.7743 37.5C62.6189 37.4049 61.4998 37.053 60.4978 36.4702L61.5979 33.8897C62.2728 34.2661 63.01 34.5178 63.7743 34.6328C64.1954 34.6328 64.5349 34.4748 64.5349 33.9599C64.5349 33.829 64.5031 33.6745 64.4481 33.497C64.4291 33.4359 64.4075 33.372 64.3833 33.3054L64.3416 33.1929L64.2903 33.0611C64.2222 32.8905 64.1434 32.7052 64.0588 32.5055C63.9764 32.312 63.8885 32.1048 63.7992 31.8842L63.7351 31.7256C63.6875 31.6061 63.6399 31.4829 63.5927 31.3561L60.2755 23.3339L57.0049 27.3479L61.1471 32.5672H57.2037L53.9335 28.1963V32.5672H50.6863V18.249H53.9335V26.833L56.7357 23.1349H63.7567Z" fill="#B6C1E1"/>
<path d="M76.1244 18.249L80.1498 26.2595L84.1693 18.249H87.2876V32.5731H84.0583V24.703L81.3026 30.2151H78.9973L76.2357 24.703V32.5731H73.012V18.249H76.1244Z" fill="#B6C1E1"/>
<path d="M115.095 23.1349H111.983V32.5732H115.095V23.1349Z" fill="#B6C1E1"/>
<path d="M122.199 26.8329C123.591 27.3479 124.685 28.2432 124.685 29.6299C124.82 31.8768 122.936 32.8598 120.414 32.8833C119.006 32.9099 117.615 32.5712 116.377 31.9003L117.319 29.3665C118.373 30.0306 119.584 30.4021 120.829 30.4432C121.414 30.4432 121.953 30.3496 121.953 29.9927C121.953 29.7626 121.729 29.6055 121.456 29.4806C121.368 29.4406 121.276 29.404 121.184 29.3693L120.987 29.2964L119.636 28.875C118.062 28.2431 116.945 27.301 116.945 25.8499C116.945 23.9716 118.243 22.8013 121 22.8013C122.155 22.8257 123.296 23.0576 124.369 23.4859L123.532 25.8265C122.646 25.4373 121.697 25.215 120.73 25.1711C120.058 25.1711 119.788 25.2881 119.788 25.6217C119.788 25.9433 120 26.0419 120.399 26.2269L120.444 26.2478L122.199 26.8329Z" fill="#B6C1E1"/>
<path d="M105.618 29.0741L103.599 23.1349H100.124L104.091 32.5732H107.122L111.106 23.1349H107.636L105.618 29.0741Z" fill="#B6C1E1"/>
<path d="M46.6492 24.4104L44.2736 22.9125C43.4661 22.4386 43.1973 22.105 43.1973 21.6954C43.1973 21.2858 43.4661 20.8879 44.4958 20.8879C45.6736 20.9508 46.8228 21.2747 47.8602 21.8359L48.8896 18.9101C47.4885 18.2509 45.9625 17.8997 44.4142 17.8803C41.36 17.8803 39.7688 19.4017 39.7688 21.7072C39.7688 23.3396 40.5935 24.6328 42.4073 25.7445L44.6248 27.067C45.4788 27.5585 46.0171 27.9681 46.0171 28.6176C46.0171 29.267 45.4319 29.7879 44.2618 29.7879C42.8629 29.7017 41.5105 29.2541 40.3361 28.4888L38.6628 31.4146C40.3163 32.4063 42.2111 32.9226 44.1392 32.9067C47.427 32.9067 49.4045 31.4029 49.4045 28.6527C49.3811 26.5813 48.3341 25.3934 46.6492 24.4104Z" fill="#B6C1E1"/>
<path fill-rule="evenodd" clip-rule="evenodd" d="M94.8129 23.1725C95.3735 23.4684 95.8536 23.8976 96.21 24.4222V23.135H99.2528V32.5673H96.21V31.2684C95.8723 31.8073 95.3948 32.2445 94.8279 32.5331C94.2614 32.8217 93.6271 32.9508 92.9924 32.9067C90.4176 32.9067 88.4287 30.8588 88.4287 27.816C88.4287 24.8904 90.4176 22.7253 92.9924 22.7253C93.6263 22.7231 94.2518 22.8766 94.8129 23.1725ZM92.9009 29.8866C93.1708 29.9961 93.4612 30.0481 93.7531 30.0396C94.0479 30.0493 94.3408 29.9985 94.6147 29.8902C94.6924 29.8596 94.7682 29.8244 94.8414 29.7851C94.9187 29.7437 94.9934 29.6975 95.0652 29.647C95.1003 29.6223 95.1348 29.5964 95.1685 29.5696C95.2307 29.5199 95.29 29.4667 95.3468 29.4101C95.5552 29.2017 95.7189 28.9525 95.8265 28.6783C95.9346 28.4041 95.9858 28.1107 95.976 27.816C95.9851 27.5244 95.9324 27.2342 95.8229 26.9637C95.7621 26.8141 95.6848 26.6722 95.5925 26.5409C95.5493 26.4794 95.5024 26.4203 95.4526 26.3637C95.4167 26.3228 95.379 26.2832 95.3398 26.2451C95.1315 26.0414 94.8817 25.8836 94.6089 25.7812C94.4719 25.73 94.3302 25.6933 94.1863 25.6715C94.0431 25.6499 93.8981 25.6429 93.7531 25.651C93.4641 25.6359 93.1763 25.6815 92.9071 25.785C92.7639 25.8398 92.6281 25.9101 92.5017 25.9944C92.4655 26.0187 92.4299 26.0442 92.3951 26.0708C92.3223 26.1262 92.2534 26.1866 92.1886 26.2515C91.9846 26.4556 91.8253 26.7004 91.722 26.97C91.6184 27.2395 91.5726 27.5277 91.5884 27.816C91.5719 28.1073 91.6162 28.3988 91.7184 28.6721C91.8209 28.9454 91.9784 29.1944 92.1816 29.4035C92.3856 29.6125 92.6302 29.7771 92.9009 29.8866Z" fill="#B6C1E1"/>
<path d="M7.19214 37.4882H5.30835L16.881 19.7118C18.8234 16.8387 20.8302 15.2531 24.2762 15.2531C25.3306 15.2604 26.3706 15.5009 27.3213 15.9571C28.272 16.4133 29.1102 17.074 29.7756 17.892C30.0741 18.2139 30.1151 18.2548 30.4546 18.2548H34.825C34.825 19.3267 33.778 19.8162 32.6962 20.3221C31.5397 20.8628 30.3433 21.4221 30.3433 22.7311V26.0898C30.3433 31.6077 26.6691 34.2466 22.4448 34.2466H22.4042L21.2865 35.9376C20.5903 37.0319 19.5312 37.4122 17.9283 37.4122H16.2606L21.8483 28.758C22.6378 27.5409 22.7316 26.6925 22.3749 26.1074L15.9391 36.0547C15.2253 37.1313 14.1487 37.4882 12.5747 37.4882H10.8198L16.4653 28.758C17.2494 27.5409 17.349 26.6925 16.9919 26.1074L10.5565 36.0547C9.84277 37.1313 8.76611 37.4882 7.19214 37.4882Z" fill="#B6C1E1"/>
</g>
</g>
</svg>
