<svg width="40" height="40" viewBox="0 0 40 40" fill="none" xmlns="http://www.w3.org/2000/svg">
<path d="M27.7819 7.95051L32.6127 6.6665L31.3628 11.5314L15.981 26.9135L16.8603 27.7927H18.7839V29.955H15.9651L13.4088 27.399L9.58629 31.2205L11.1155 32.7494L9.58661 34.2792L5 29.692L6.52855 28.1631L8.05742 29.692L11.8796 25.8701L9.32423 23.3141V20.4953H11.4865V22.419L12.4005 23.3332L27.7819 7.95051Z" fill="white"/>
<path d="M15.5862 18.4805L19.1667 14.8996L12.2181 7.95051L7.38729 6.6665L8.63725 11.5314L15.5862 18.4805Z" fill="white"/>
<path d="M24.4138 20.1472L20.8333 23.7277L24.019 26.9135L23.1397 27.7927H21.2161V29.955H24.0349L26.5912 27.399L30.4137 31.2205L28.8845 32.7494L30.4134 34.2792L35 29.692L33.4715 28.1631L31.9426 29.692L28.1204 25.8701L30.6758 23.3141V20.4953H28.5135V22.419L27.5995 23.3332L24.4138 20.1472Z" fill="white"/>
</svg>
