<svg width="321" height="14" viewBox="0 0 321 14" fill="none" xmlns="http://www.w3.org/2000/svg">
<path d="M7.58115 13.2974H0.656516V10.5962H7.11021C7.82534 10.5962 8.22652 9.92495 8.22652 9.31759C8.22652 8.80613 7.91256 8.19877 7.19742 8.19877H2.33099C1.19723 8.19877 0.255341 7.23979 0.255341 6.15293V2.47682C0.447207 0.814572 2.34843 0.686707 3.86592 0.686707H11.0871V3.18007H4.04034C3.55195 3.18007 3.46474 3.69153 3.46474 4.21898C3.46474 5.46566 3.63917 5.64147 4.96479 5.64147H8.88933C9.26062 5.64147 9.58709 5.66886 9.93787 5.69828L10.0231 5.70541C10.9999 5.76934 11.5406 6.45661 11.6976 7.30372C11.7499 7.59142 11.7499 7.86313 11.7499 8.13484V11.0438C11.7499 12.5941 10.0754 13.2814 7.58115 13.2974Z" fill="white"/>
<path d="M27.3577 0.686707H23.9913V9.09383C23.9913 9.66922 23.7646 10.0688 23.3808 10.2766C22.8576 10.5323 22.0901 10.6602 21.3052 10.6602C20.5028 10.6602 19.7005 10.5323 19.1772 10.2766C18.776 10.0688 18.5667 9.66922 18.5667 9.09383V0.686707H15.148V9.81307C15.148 10.9159 15.5841 11.9548 16.6481 12.5941C17.7295 13.2335 18.9505 13.3134 21.2529 13.3134H21.8808C23.2413 13.3134 24.5844 13.2814 25.7879 12.5781C26.8519 11.9548 27.3577 10.9479 27.3577 9.81307V0.686707Z" fill="white"/>
<path d="M48.2543 13.2974V0.686707H42.5332L39.6378 8.85408L36.3586 0.686707H31.0212V13.2974H34.2306V3.94726L37.7191 13.2974H40.9808L44.7309 3.94726V13.2974H48.2543Z" fill="white"/>
<path d="M69.1535 13.2974V0.686707H63.4324L60.5369 8.85408L57.2577 0.686707H51.9204V13.2974H55.1298V3.94726L58.6183 13.2974H61.88L65.6301 3.94726V13.2974H69.1535Z" fill="white"/>
<path d="M83.3024 13.2974V10.3885H76.0289V8.21476H82.9536V5.70541H76.0289V3.4358H83.3024V0.686707H72.8195V13.2974H83.3024Z" fill="white"/>
<path fill-rule="evenodd" clip-rule="evenodd" d="M98.8866 3.45179C98.8866 1.03834 96.7237 0.782605 94.6829 0.686707H86.9734V13.2974H90.2526V8.61434C90.9024 8.62497 91.5369 8.62145 92.1764 8.61791C92.4981 8.61613 92.8211 8.61434 93.148 8.61434C94.1422 8.63032 95.0318 8.71023 95.1888 9.7811V13.2974H98.6772V9.30161C98.6772 8.80613 98.6424 8.43852 98.2935 8.00698C97.9795 7.59142 97.4563 7.28774 96.9504 7.06397C98.7296 7.06397 98.8866 5.62549 98.8866 4.37881V3.45179ZM94.3166 3.24401C95.0492 3.24401 95.3632 3.4358 95.3632 4.57061C95.3632 5.35378 95.3109 5.9931 94.3166 5.9931H90.1653V3.24401H94.3166Z" fill="white"/>
<path d="M124.241 5.67344C124.241 6.93611 123.665 7.99099 122.671 8.42254C121.991 8.7422 121.031 8.77417 119.811 8.77417H115.31V13.2974H112.153V6.0606H116.009V6.05704H118.049C119.026 6.05704 119.723 5.9931 120.107 5.81729C120.543 5.60951 120.718 5.25788 120.718 4.82634V4.26693C120.718 3.85137 120.543 3.57965 120.142 3.4358C119.758 3.30794 119.043 3.24401 118.014 3.24401L112.153 3.24358V0.686707H118.066C120.281 0.686707 121.869 0.878504 122.811 1.29406C123.77 1.66168 124.241 2.33297 124.241 3.46777V5.67344Z" fill="white"/>
<path fill-rule="evenodd" clip-rule="evenodd" d="M127.731 3.57965V10.4364C127.731 10.9798 127.8 11.4753 128.114 11.9868C128.899 13.2335 130.626 13.2974 132.213 13.2974H135.981C137.568 13.2974 139.26 13.2335 140.062 11.9868C140.394 11.4753 140.463 10.9798 140.463 10.4204V3.57965C140.463 3.02024 140.394 2.52477 140.062 1.99732C139.26 0.750639 137.568 0.686707 135.981 0.686707H132.213C130.626 0.686707 128.899 0.750639 128.114 1.99732C127.8 2.52477 127.731 3.02024 127.731 3.57965ZM131.76 3.78743C132.405 3.5317 133.277 3.38785 134.149 3.38785C135.039 3.38785 135.928 3.5317 136.556 3.78743C137.045 4.0112 137.167 4.42676 137.167 5.0501V9.25366C137.167 9.65324 137.149 9.81307 136.94 10.0209C136.26 10.6602 135.039 10.6921 134.149 10.6921C133.277 10.6921 132.056 10.6602 131.376 10.0209C131.167 9.81307 131.167 9.65324 131.167 9.25366V5.0501C131.167 4.42676 131.254 4.0112 131.76 3.78743Z" fill="white"/>
<path d="M147.655 13.2974V0.686707H144.132V13.2974H147.655Z" fill="white"/>
<path d="M164.436 13.2974V0.686707H161.226V9.26964L156.203 0.686707H151.319V13.2974H154.528V4.29889L159.778 13.2974H164.436Z" fill="white"/>
<path d="M180.288 3.45179V0.686707H167.659V3.45179H172.125V13.2974H175.822V3.45179H180.288Z" fill="white"/>
<path d="M183.65 13.2974H190.574C193.068 13.2814 194.743 12.5941 194.743 11.0438V8.13458C194.743 7.86296 194.743 7.59132 194.691 7.30372C194.534 6.45661 193.993 5.76934 193.016 5.70541L192.931 5.69828C192.58 5.66885 192.254 5.64147 191.882 5.64147H187.958C186.632 5.64147 186.458 5.46566 186.458 4.21898C186.458 3.69153 186.545 3.18007 187.033 3.18007H194.08V0.686707H186.859C185.341 0.686707 183.44 0.814572 183.248 2.47682V6.15293C183.248 7.23979 184.19 8.19877 185.324 8.19877H190.19C190.906 8.19877 191.22 8.80613 191.22 9.31759C191.22 9.92495 190.818 10.5962 190.103 10.5962H183.65V13.2974Z" fill="white"/>
<path fill-rule="evenodd" clip-rule="evenodd" d="M235.227 3.45179C235.227 1.03834 233.064 0.782605 231.023 0.686707H223.313V13.2974H226.593V8.61434C227.243 8.62497 227.877 8.62145 228.517 8.61791C228.838 8.61613 229.161 8.61434 229.488 8.61434C230.482 8.63032 231.372 8.71023 231.529 9.7811V13.2974H235.017V9.30161C235.017 8.80613 234.982 8.43852 234.634 8.00698C234.32 7.59142 233.796 7.28774 233.291 7.06397C235.07 7.06397 235.227 5.62549 235.227 4.37881V3.45179ZM230.657 3.24401C231.389 3.24401 231.703 3.4358 231.703 4.57061C231.703 5.35378 231.651 5.9931 230.657 5.9931H226.505V3.24401H230.657Z" fill="white"/>
<path fill-rule="evenodd" clip-rule="evenodd" d="M238.897 3.57965V10.4364C238.897 10.9798 238.967 11.4753 239.281 11.9868C240.066 13.2335 241.793 13.2974 243.38 13.2974H247.147C248.735 13.2974 250.427 13.2335 251.229 11.9868C251.56 11.4753 251.63 10.9798 251.63 10.4204V3.57965C251.63 3.02024 251.56 2.52477 251.229 1.99732C250.427 0.750639 248.735 0.686707 247.147 0.686707H243.38C241.793 0.686707 240.066 0.750639 239.281 1.99732C238.967 2.52477 238.897 3.02024 238.897 3.57965ZM242.926 3.78743C243.572 3.5317 244.444 3.38785 245.316 3.38785C246.205 3.38785 247.095 3.5317 247.723 3.78743C248.211 4.0112 248.333 4.42676 248.333 5.0501V9.25366C248.333 9.65324 248.316 9.81307 248.107 10.0209C247.426 10.6602 246.205 10.6921 245.316 10.6921C244.444 10.6921 243.223 10.6602 242.543 10.0209C242.333 9.81307 242.333 9.65324 242.333 9.25366V5.0501C242.333 4.42676 242.42 4.0112 242.926 3.78743Z" fill="white"/>
<path d="M263.114 6.63243V10.3405H259.329C258.823 10.3405 258.509 9.76512 258.509 9.41349V4.68249C258.509 3.94726 258.613 3.49974 259.311 3.49974H266.306V0.686707H258.509C257.706 0.686707 257.148 0.750639 256.486 1.13423C255.823 1.51783 255.299 2.07724 255.299 2.81246V10.2446C255.299 12.1946 255.98 13.2814 258.422 13.2974H266.323V6.63243H263.114Z" fill="white"/>
<path fill-rule="evenodd" clip-rule="evenodd" d="M281.724 3.45179C281.724 1.03834 279.561 0.782605 277.521 0.686707H269.811V13.2974H273.09V8.61434C273.74 8.62497 274.374 8.62145 275.014 8.61791C275.336 8.61613 275.659 8.61434 275.986 8.61434C276.98 8.63032 277.869 8.71023 278.026 9.7811V13.2974H281.515V9.30161C281.515 8.80613 281.48 8.43852 281.131 8.00698C280.817 7.59142 280.294 7.28774 279.788 7.06397C281.567 7.06397 281.724 5.62549 281.724 4.37881V3.45179ZM277.154 3.24401C277.887 3.24401 278.201 3.4358 278.201 4.57061C278.201 5.35378 278.148 5.9931 277.154 5.9931H273.003V3.24401H277.154Z" fill="white"/>
<path d="M295.202 0.686707L300.522 13.2974H296.841L292.516 3.22802L287.963 13.2974H284.109L290.144 0.686707H295.202Z" fill="white"/>
<path d="M320.29 0.686707V13.2974H316.767V3.94726L313.017 13.2974H309.755L306.267 3.94726V13.2974H303.057V0.686707H308.395L311.674 8.85408L314.569 0.686707H320.29Z" fill="white"/>
<path d="M220.174 3.46777V5.67344C220.174 6.93611 219.599 7.99099 218.604 8.42254C217.924 8.7422 216.965 8.77417 215.744 8.77417H211.244V13.2974H208.087V6.0606H211.943V6.05704H213.982C214.959 6.05704 215.657 5.9931 216.04 5.81729C216.476 5.60951 216.651 5.25788 216.651 4.82634V4.26693C216.651 3.85137 216.476 3.57965 216.075 3.4358C215.691 3.30794 214.976 3.24401 213.947 3.24401L208.087 3.24358V0.686707H214C216.215 0.686707 217.802 0.878504 218.744 1.29406C219.703 1.66168 220.174 2.33297 220.174 3.46777Z" fill="white"/>
</svg>
