<svg width="44" height="44" viewBox="0 0 44 44" fill="none" xmlns="http://www.w3.org/2000/svg">
<path d="M44.0012 2.59194L32.3375 14.2557L29.7455 11.6637L41.4093 0L44.0012 2.59194Z" fill="url(#paint0_linear_1_4614)"/>
<path d="M11.6647 14.2622L0.000520748 2.59802L2.59285 0.00568865L14.257 11.6698L11.6647 14.2622Z" fill="url(#paint1_linear_1_4614)"/>
<path d="M23.8306 22.9179V36.6672H31.1656V40.3333H12.8322V36.6672H20.1645V22.9179H23.8306Z" fill="url(#paint2_linear_1_4614)"/>
<path d="M21.9976 0.00219963C18.9612 0.00219963 16.4978 2.46552 16.4978 5.50192C16.4978 8.54162 18.9612 11.0016 21.9976 11.0016C25.0372 11.0016 27.4973 8.54162 27.4973 5.50192C27.4973 2.46552 25.0372 0.00219963 21.9976 0.00219963Z" fill="url(#paint3_linear_1_4614)"/>
<path d="M18.3309 12.8347H25.6642C27.687 12.8347 29.3303 14.4786 29.3303 16.5014V20.168H14.6642V16.5014C14.6642 14.478 16.3075 12.8347 18.3309 12.8347Z" fill="url(#paint4_linear_1_4614)"/>
<path d="M7.33157 23.8342C4.29518 23.8342 1.83185 26.2975 1.83185 29.3339C1.83185 32.3736 4.29518 34.8336 7.33157 34.8336C10.3713 34.8336 12.8313 32.3736 12.8313 29.3339C12.8313 26.298 10.3718 23.8342 7.33157 23.8342Z" fill="url(#paint5_linear_1_4614)"/>
<path d="M3.66544 36.6672H9.16517V44H-0.0012207V40.3333C-0.0012207 38.3105 1.64265 36.6672 3.66544 36.6672Z" fill="url(#paint6_linear_1_4614)"/>
<path d="M34.8302 36.6672H40.33C42.3533 36.6672 43.9966 38.3105 43.9966 40.3333V44H34.8302V36.6672Z" fill="url(#paint7_linear_1_4614)"/>
<path d="M31.1641 29.3339C31.1641 26.2975 33.6274 23.8342 36.6638 23.8342C39.7035 23.8342 42.1635 26.298 42.1635 29.3339C42.1635 32.3736 39.7035 34.8336 36.6638 34.8336C33.6274 34.8336 31.1641 32.3736 31.1641 29.3339Z" fill="url(#paint8_linear_1_4614)"/>
<defs>
<linearGradient id="paint0_linear_1_4614" x1="3.99921" y1="-1.57387e-06" x2="43.6153" y2="38.0871" gradientUnits="userSpaceOnUse">
<stop stop-color="#FF6660"/>
<stop offset="1" stop-color="#AC2EDF"/>
</linearGradient>
<linearGradient id="paint1_linear_1_4614" x1="3.99921" y1="-1.57387e-06" x2="43.6153" y2="38.0871" gradientUnits="userSpaceOnUse">
<stop stop-color="#FF6660"/>
<stop offset="1" stop-color="#AC2EDF"/>
</linearGradient>
<linearGradient id="paint2_linear_1_4614" x1="3.99921" y1="-1.57387e-06" x2="43.6153" y2="38.0871" gradientUnits="userSpaceOnUse">
<stop stop-color="#FF6660"/>
<stop offset="1" stop-color="#AC2EDF"/>
</linearGradient>
<linearGradient id="paint3_linear_1_4614" x1="3.99921" y1="-1.57387e-06" x2="43.6153" y2="38.0871" gradientUnits="userSpaceOnUse">
<stop stop-color="#FF6660"/>
<stop offset="1" stop-color="#AC2EDF"/>
</linearGradient>
<linearGradient id="paint4_linear_1_4614" x1="3.99921" y1="-1.57387e-06" x2="43.6153" y2="38.0871" gradientUnits="userSpaceOnUse">
<stop stop-color="#FF6660"/>
<stop offset="1" stop-color="#AC2EDF"/>
</linearGradient>
<linearGradient id="paint5_linear_1_4614" x1="3.99921" y1="-1.57387e-06" x2="43.6153" y2="38.0871" gradientUnits="userSpaceOnUse">
<stop stop-color="#FF6660"/>
<stop offset="1" stop-color="#AC2EDF"/>
</linearGradient>
<linearGradient id="paint6_linear_1_4614" x1="3.99921" y1="-1.57387e-06" x2="43.6153" y2="38.0871" gradientUnits="userSpaceOnUse">
<stop stop-color="#FF6660"/>
<stop offset="1" stop-color="#AC2EDF"/>
</linearGradient>
<linearGradient id="paint7_linear_1_4614" x1="3.99921" y1="-1.57387e-06" x2="43.6153" y2="38.0871" gradientUnits="userSpaceOnUse">
<stop stop-color="#FF6660"/>
<stop offset="1" stop-color="#AC2EDF"/>
</linearGradient>
<linearGradient id="paint8_linear_1_4614" x1="3.99921" y1="-1.57387e-06" x2="43.6153" y2="38.0871" gradientUnits="userSpaceOnUse">
<stop stop-color="#FF6660"/>
<stop offset="1" stop-color="#AC2EDF"/>
</linearGradient>
</defs>
</svg>
