<svg width="145" height="45" viewBox="0 0 145 45" fill="none" xmlns="http://www.w3.org/2000/svg">
<g id="worldcoin">
<g id="Vector">
<path fill-rule="evenodd" clip-rule="evenodd" d="M26.8972 14.7278C27.9096 15.7463 28.6928 16.9182 29.2471 18.2248C29.8201 19.5698 30.1257 21.0108 30.1257 22.4902C30.1257 23.9698 29.8392 25.4108 29.2662 26.7749C28.712 28.0815 27.9287 29.2537 26.9162 30.272C25.9037 31.2902 24.7383 32.0781 23.4394 32.6352C22.0828 33.2116 20.6499 33.5 19.1789 33.5C17.7079 33.5 16.275 33.2116 14.9185 32.6352C13.6196 32.0972 12.4541 31.3095 11.4415 30.2913C10.429 29.2728 9.64563 28.1008 9.09164 26.7943C8.5185 25.4302 8.23193 23.9889 8.23193 22.5095C8.23193 21.0108 8.5185 19.5698 9.09164 18.2248C9.64563 16.9182 10.429 15.7463 11.4415 14.7278C12.4541 13.7095 13.6196 12.9216 14.9185 12.3645C16.256 11.7881 17.6888 11.5 19.1789 11.5C20.6499 11.5 22.0828 11.7881 23.4394 12.3645C24.7383 12.9216 25.8847 13.7095 26.8972 14.7278ZM19.4846 18.417C17.5931 18.417 15.9886 19.7042 15.5491 21.472H28.0051C27.8906 20.3959 27.585 19.3584 27.0883 18.417H19.4846ZM27.0883 26.6021C27.5658 25.6607 27.8906 24.6231 28.0051 23.5471H15.5491C16.0076 25.2955 17.5931 26.6021 19.4846 26.6021H27.0883ZM19.1789 13.5749C16.8099 13.5749 14.5747 14.4972 12.8935 16.1881C11.4607 17.629 10.5818 19.4736 10.3525 21.472H13.4475C13.6386 20.2231 14.2307 19.0703 15.1478 18.148C16.3132 16.9758 17.8415 16.3418 19.4846 16.3418H25.6173L25.4642 16.1881C23.7831 14.4972 21.5479 13.5749 19.1789 13.5749ZM12.8935 28.831C14.5747 30.5219 16.8099 31.4439 19.1789 31.4439C21.5479 31.4439 23.7831 30.5219 25.4642 28.831L25.6173 28.6773H19.4846C17.8415 28.6773 16.3132 28.0431 15.1478 26.8711C14.2498 25.9488 13.6577 24.7959 13.4475 23.5471H10.3525C10.5818 25.5261 11.4607 27.3898 12.8935 28.831Z" fill="#B6C1E1"/>
<path fill-rule="evenodd" clip-rule="evenodd" d="M49.078 22.5095C49.078 19.0896 51.8484 16.3036 55.2489 16.3036C58.6494 16.3036 61.4198 19.0703 61.4198 22.5095C61.4198 25.9297 58.6494 28.7157 55.2489 28.7157C51.8484 28.7157 49.078 25.9297 49.078 22.5095ZM59.4136 22.5095C59.4136 20.2041 57.5416 18.321 55.2489 18.321C52.9372 18.321 51.0841 20.2041 51.0841 22.5095C51.0841 24.8153 52.9565 26.6983 55.2489 26.6983C57.5416 26.6983 59.4136 24.8153 59.4136 22.5095Z" fill="#B6C1E1"/>
<path fill-rule="evenodd" clip-rule="evenodd" d="M108.856 22.5095C108.856 19.0896 111.626 16.3036 115.027 16.3036C118.446 16.3036 121.198 19.0703 121.198 22.5095C121.198 25.9297 118.427 28.7157 115.027 28.7157C111.626 28.7157 108.856 25.9297 108.856 22.5095ZM119.192 22.5095C119.192 20.2041 117.319 18.321 115.027 18.321C112.734 18.321 110.862 20.2041 110.862 22.5095C110.862 24.8153 112.734 26.6983 115.027 26.6983C117.319 26.6983 119.192 24.8153 119.192 22.5095Z" fill="#B6C1E1"/>
<path d="M105.723 23.9507C105.131 25.5648 103.602 26.6983 101.807 26.6983C99.514 26.6983 97.6419 24.8153 97.6419 22.5095C97.6419 20.2041 99.514 18.321 101.807 18.321C103.602 18.321 105.131 19.4739 105.723 21.0686H107.805C107.175 18.3401 104.73 16.3036 101.807 16.3036C98.4062 16.3036 95.6358 19.0896 95.6358 22.5095C95.6358 25.9297 98.4062 28.7157 101.807 28.7157C104.73 28.7157 107.175 26.679 107.805 23.9507H105.723Z" fill="#B6C1E1"/>
<path fill-rule="evenodd" clip-rule="evenodd" d="M84.1159 16.4955H88.4144C91.7193 16.4955 94.3939 19.1856 94.3939 22.5095C94.3939 25.8335 91.7193 28.5236 88.4144 28.5236H84.1159V16.4955ZM92.3881 22.6633C92.4644 20.396 90.6496 18.5129 88.4144 18.5129H86.1217V26.5059H88.3188C90.4776 26.5059 92.3117 24.8344 92.3881 22.6633Z" fill="#B6C1E1"/>
<path d="M124.674 16.5138H122.668V28.5034H124.674V16.5138Z" fill="#B6C1E1"/>
<path d="M40.6531 19.7424L38.3796 28.5614H35.6287L32.5146 16.4568H34.578L37.0042 25.8523L39.4305 16.4568H41.8759L44.3021 25.8523L46.7284 16.4568H48.7918L45.6777 28.5614H42.9266L40.6531 19.7424Z" fill="#B6C1E1"/>
<path d="M128.687 19.9732L134.762 28.5042H136.768V16.5146H134.762V25.0459L128.687 16.4955H128.534L128.515 16.5146H126.681V28.5042H128.687V19.9732Z" fill="#B6C1E1"/>
<path d="M74.2768 16.5138H76.2827V26.486H82.6446V28.5034H74.2768V16.5138Z" fill="#B6C1E1"/>
<path fill-rule="evenodd" clip-rule="evenodd" d="M70.4178 23.5667C71.6404 22.9518 72.4811 21.7028 72.4811 20.2425C72.4811 18.1867 70.819 16.5342 68.7937 16.5342H62.9478V28.5238H65.0112V23.951H66.1573C68.6029 24.0279 70.5515 26.0259 70.5515 28.5047H72.6147C72.6337 26.5448 71.7743 24.7771 70.4178 23.5667ZM65.0112 21.8758V18.5903H68.7937C69.6917 18.5903 70.4178 19.3204 70.4178 20.2234C70.4178 21.1264 69.6917 21.8758 68.7937 21.8758H65.0112Z" fill="#B6C1E1"/>
</g>
</g>
</svg>
