<svg width="370" height="40" viewBox="0 0 370 40" fill="none" xmlns="http://www.w3.org/2000/svg">
<path fill-rule="evenodd" clip-rule="evenodd" d="M19.3493 0L25.5704 8.29554L35.922 7.65393L29.954 16.1348L33.7639 25.7799L23.8533 22.7255L15.8559 29.3284L15.6987 18.96L6.94783 13.3958L16.7604 10.0417L19.3493 0ZM5.5227 15.7346C1.25345 20.6536 -1.30075 28.3514 0.683812 40C2.58466 34.7497 7.41156 30.402 13.5225 27.7197L13.4367 21.3005L13.4183 21.103L13.2387 20.9544L12.6384 20.4721L5.5227 15.7346Z" fill="url(#paint0_linear_1_5468)"/>
<path d="M56.5811 26.2974H49.6565V23.5962H56.1102C56.8253 23.5962 57.2265 22.925 57.2265 22.3176C57.2265 21.8061 56.9125 21.1988 56.1974 21.1988H51.331C50.1972 21.1988 49.2553 20.2398 49.2553 19.1529V15.4768C49.4472 13.8146 51.3484 13.6867 52.8659 13.6867H60.087V16.1801H53.0403C52.5519 16.1801 52.4647 16.6915 52.4647 17.219C52.4647 18.4657 52.6391 18.6415 53.9648 18.6415H57.8893C58.2606 18.6415 58.5871 18.6689 58.9378 18.6983L59.0231 18.7054C59.9998 18.7693 60.5405 19.4566 60.6975 20.3037C60.7499 20.5914 60.7499 20.8631 60.7499 21.1348V24.0438C60.7499 25.5941 59.0754 26.2814 56.5811 26.2974Z" fill="white"/>
<path d="M76.3577 13.6867H72.9913V22.0938C72.9913 22.6692 72.7645 23.0688 72.3808 23.2766C71.8575 23.5323 71.0901 23.6602 70.3052 23.6602C69.5028 23.6602 68.7005 23.5323 68.1772 23.2766C67.776 23.0688 67.5667 22.6692 67.5667 22.0938V13.6867H64.148V22.8131C64.148 23.9159 64.5841 24.9548 65.648 25.5941C66.7295 26.2335 67.9504 26.3134 70.2528 26.3134H70.8808C72.2413 26.3134 73.5843 26.2814 74.7879 25.5781C75.8519 24.9548 76.3577 23.9479 76.3577 22.8131V13.6867Z" fill="white"/>
<path d="M97.2543 26.2974V13.6867H91.5332L88.6377 21.8541L85.3586 13.6867H80.0212V26.2974H83.2306V16.9473L86.7191 26.2974H89.9808L93.7309 16.9473V26.2974H97.2543Z" fill="white"/>
<path d="M118.153 26.2974V13.6867H112.432L109.537 21.8541L106.258 13.6867H100.92V26.2974H104.13V16.9473L107.618 26.2974H110.88L114.63 16.9473V26.2974H118.153Z" fill="white"/>
<path d="M132.302 26.2974V23.3885H125.029V21.2148H131.954V18.7054H125.029V16.4358H132.302V13.6867H121.819V26.2974H132.302Z" fill="white"/>
<path fill-rule="evenodd" clip-rule="evenodd" d="M147.887 16.4518C147.887 14.0383 145.724 13.7826 143.683 13.6867H135.973V26.2974H139.253V21.6143C139.902 21.625 140.537 21.6215 141.176 21.6179C141.498 21.6161 141.821 21.6143 142.148 21.6143C143.142 21.6303 144.032 21.7102 144.189 22.7811V26.2974H147.677V22.3016C147.677 21.8061 147.642 21.4385 147.293 21.007C146.98 20.5914 146.456 20.2877 145.95 20.064C147.73 20.064 147.887 18.6255 147.887 17.3788V16.4518ZM143.317 16.244C144.049 16.244 144.363 16.4358 144.363 17.5706C144.363 18.3538 144.311 18.9931 143.317 18.9931H139.165V16.244H143.317Z" fill="white"/>
<path d="M173.241 18.6734C173.241 19.9361 172.665 20.991 171.671 21.4225C170.991 21.7422 170.031 21.7742 168.81 21.7742H164.31V26.2974H161.153V19.0606H165.009V19.057H167.049C168.026 19.057 168.723 18.9931 169.107 18.8173C169.543 18.6095 169.717 18.2579 169.717 17.8263V17.2669C169.717 16.8514 169.543 16.5797 169.142 16.4358C168.758 16.3079 168.043 16.244 167.014 16.244L161.153 16.2436V13.6867H167.066C169.281 13.6867 170.869 13.8785 171.811 14.2941C172.77 14.6617 173.241 15.333 173.241 16.4678V18.6734Z" fill="white"/>
<path fill-rule="evenodd" clip-rule="evenodd" d="M176.73 16.5797V23.4364C176.73 23.9798 176.8 24.4753 177.114 24.9868C177.899 26.2335 179.626 26.2974 181.213 26.2974H184.981C186.568 26.2974 188.26 26.2335 189.062 24.9868C189.394 24.4753 189.463 23.9798 189.463 23.4204V16.5797C189.463 16.0202 189.394 15.5248 189.062 14.9973C188.26 13.7506 186.568 13.6867 184.981 13.6867H181.213C179.626 13.6867 177.899 13.7506 177.114 14.9973C176.8 15.5248 176.73 16.0202 176.73 16.5797ZM180.76 16.7874C181.405 16.5317 182.277 16.3879 183.149 16.3879C184.039 16.3879 184.928 16.5317 185.556 16.7874C186.045 17.0112 186.167 17.4268 186.167 18.0501V22.2537C186.167 22.6532 186.149 22.8131 185.94 23.0209C185.26 23.6602 184.039 23.6921 183.149 23.6921C182.277 23.6921 181.056 23.6602 180.376 23.0209C180.167 22.8131 180.167 22.6532 180.167 22.2537V18.0501C180.167 17.4268 180.254 17.0112 180.76 16.7874Z" fill="white"/>
<path d="M196.655 26.2974V13.6867H193.132V26.2974H196.655Z" fill="white"/>
<path d="M213.436 26.2974V13.6867H210.226V22.2696L205.203 13.6867H200.319V26.2974H203.528V17.2989L208.778 26.2974H213.436Z" fill="white"/>
<path d="M229.288 16.4518V13.6867H216.659V16.4518H221.125V26.2974H224.822V16.4518H229.288Z" fill="white"/>
<path d="M232.649 26.2974H239.574C242.068 26.2814 243.743 25.5941 243.743 24.0438V21.1346C243.743 20.863 243.743 20.5913 243.691 20.3037C243.534 19.4566 242.993 18.7693 242.016 18.7054L241.931 18.6983C241.58 18.6689 241.254 18.6415 240.882 18.6415H236.958C235.632 18.6415 235.458 18.4657 235.458 17.219C235.458 16.6915 235.545 16.1801 236.033 16.1801H243.08V13.6867H235.859C234.341 13.6867 232.44 13.8146 232.248 15.4768V19.1529C232.248 20.2398 233.19 21.1988 234.324 21.1988H239.19C239.906 21.1988 240.219 21.8061 240.219 22.3176C240.219 22.925 239.818 23.5962 239.103 23.5962H232.649V26.2974Z" fill="white"/>
<path fill-rule="evenodd" clip-rule="evenodd" d="M284.227 16.4518C284.227 14.0383 282.064 13.7826 280.023 13.6867H272.313V26.2974H275.593V21.6143C276.243 21.625 276.877 21.6215 277.516 21.6179C277.838 21.6161 278.161 21.6143 278.488 21.6143C279.482 21.6303 280.372 21.7102 280.529 22.7811V26.2974H284.017V22.3016C284.017 21.8061 283.982 21.4385 283.634 21.007C283.32 20.5914 282.796 20.2877 282.291 20.064C284.07 20.064 284.227 18.6255 284.227 17.3788V16.4518ZM279.657 16.244C280.389 16.244 280.703 16.4358 280.703 17.5706C280.703 18.3538 280.651 18.9931 279.657 18.9931H275.505V16.244H279.657Z" fill="white"/>
<path fill-rule="evenodd" clip-rule="evenodd" d="M287.897 16.5797V23.4364C287.897 23.9798 287.967 24.4753 288.281 24.9868C289.066 26.2335 290.793 26.2974 292.38 26.2974H296.147C297.735 26.2974 299.427 26.2335 300.229 24.9868C300.56 24.4753 300.63 23.9798 300.63 23.4204V16.5797C300.63 16.0202 300.56 15.5248 300.229 14.9973C299.427 13.7506 297.735 13.6867 296.147 13.6867H292.38C290.793 13.6867 289.066 13.7506 288.281 14.9973C287.967 15.5248 287.897 16.0202 287.897 16.5797ZM291.926 16.7874C292.572 16.5317 293.444 16.3879 294.316 16.3879C295.205 16.3879 296.095 16.5317 296.723 16.7874C297.211 17.0112 297.333 17.4268 297.333 18.0501V22.2537C297.333 22.6532 297.316 22.8131 297.107 23.0209C296.426 23.6602 295.205 23.6921 294.316 23.6921C293.444 23.6921 292.223 23.6602 291.543 23.0209C291.333 22.8131 291.333 22.6532 291.333 22.2537V18.0501C291.333 17.4268 291.42 17.0112 291.926 16.7874Z" fill="white"/>
<path d="M312.114 19.6324V23.3405H308.329C307.823 23.3405 307.509 22.7651 307.509 22.4135V17.6825C307.509 16.9473 307.613 16.4997 308.311 16.4997H315.306V13.6867H307.509C306.706 13.6867 306.148 13.7506 305.485 14.1342C304.823 14.5178 304.299 15.0772 304.299 15.8125V23.2446C304.299 25.1946 304.98 26.2814 307.422 26.2974H315.323V19.6324H312.114Z" fill="white"/>
<path fill-rule="evenodd" clip-rule="evenodd" d="M330.724 16.4518C330.724 14.0383 328.561 13.7826 326.52 13.6867H318.811V26.2974H322.09V21.6143C322.74 21.625 323.374 21.6215 324.014 21.6179C324.336 21.6161 324.659 21.6143 324.986 21.6143C325.98 21.6303 326.869 21.7102 327.026 22.7811V26.2974H330.515V22.3016C330.515 21.8061 330.48 21.4385 330.131 21.007C329.817 20.5914 329.294 20.2877 328.788 20.064C330.567 20.064 330.724 18.6255 330.724 17.3788V16.4518ZM326.154 16.244C326.887 16.244 327.201 16.4358 327.201 17.5706C327.201 18.3538 327.148 18.9931 326.154 18.9931H322.003V16.244H326.154Z" fill="white"/>
<path d="M344.202 13.6867L349.522 26.2974H345.841L341.516 16.228L336.963 26.2974H333.108L339.144 13.6867H344.202Z" fill="white"/>
<path d="M369.29 13.6867V26.2974H365.767V16.9473L362.017 26.2974H358.755L355.267 16.9473V26.2974H352.057V13.6867H357.395L360.674 21.8541L363.569 13.6867H369.29Z" fill="white"/>
<path d="M269.174 16.4678V18.6734C269.174 19.9361 268.598 20.991 267.604 21.4225C266.924 21.7422 265.965 21.7742 264.744 21.7742H260.244V26.2974H257.086V19.0606H260.942V19.057H262.982C263.959 19.057 264.656 18.9931 265.04 18.8173C265.476 18.6095 265.651 18.2579 265.651 17.8263V17.2669C265.651 16.8514 265.476 16.5797 265.075 16.4358C264.691 16.3079 263.976 16.244 262.947 16.244L257.086 16.2436V13.6867H262.999C265.215 13.6867 266.802 13.8785 267.744 14.2941C268.703 14.6617 269.174 15.333 269.174 16.4678Z" fill="white"/>
<defs>
<linearGradient id="paint0_linear_1_5468" x1="0" y1="0" x2="17.961" y2="40" gradientUnits="userSpaceOnUse">
<stop stop-color="#0F67C1"/>
<stop offset="0.333333" stop-color="#1B95E7"/>
<stop offset="0.666667" stop-color="#F18006"/>
<stop offset="1" stop-color="#C74702"/>
</linearGradient>
</defs>
</svg>
